opsz144_wght100.ufo
<glyph name="zero" format="2">
	<unicode hex="0030"/>
	<advance width="1178"/>
	<outline>
		<contour>
			<point x="78.71875" y="801.990234375" type="qcurve" smooth="yes"/>
			<point x="128.9782714844" y="1086.5855712891"/>
			<point x="485.0228271484" y="1547.643371582"/>
			<point x="716.8619995117" y="1541.98046875" type="qcurve" smooth="yes"/>
			<point x="911.9342651367" y="1536.317565918"/>
			<point x="1146.9059448242" y="1061.5250244141"/>
			<point x="1099.7796630859" y="760.942199707" type="qcurve" smooth="yes"/>
			<point x="1053.3756103516" y="452.4302978516"/>
			<point x="684.285949707" y="-14.662902832"/>
			<point x="470.839050293" y="-8" type="qcurve" smooth="yes"/>
			<point x="258.8953857422" y="-1.337097168"/>
			<point x="17.5540771484" y="463.4425048828"/>
		</contour>
		<contour>
			<point x="263.7154541016" y="806.990234375" type="qcurve" smooth="yes"/>
			<point x="207.8828735352" y="498.9925537109"/>
			<point x="338.2280273438" y="109.0024414062"/>
			<point x="483.6967773438" y="104.0024414062" type="qcurve" smooth="yes"/>
			<point x="641.4155273438" y="99.0024414062"/>
			<point x="873.9457397461" y="474.7783813477"/>
			<point x="918.4458618164" y="780.990234375" type="qcurve" smooth="yes"/>
			<point x="958.8794555664" y="1053.9874267578"/>
			<point x="831.905456543" y="1413.8432006836"/>
			<point x="686.092956543" y="1419.8432006836" type="qcurve" smooth="yes"/>
			<point x="526.405456543" y="1426.8432006836"/>
			<point x="316.3842773438" y="1095.2020874023"/>
		</contour>
	</outline>
</glyph>
<glyph name="one" format="2">
	<unicode hex="0031"/>
	<advance width="638"/>
	<outline>
		<contour>
			<point x="110.8463134766" y="-14.6729125977" type="line"/>
			<point x="124.7930908203" y="25.2445068359"/>
			<point x="150.7178955078" y="110.79296875"/>
			<point x="181.7745361328" y="271.435546875" type="qcurve" smooth="yes"/>
			<point x="295.3428955078" y="861.9306640625" type="line"/>
			<point x="379.2792358398" y="1328.2053833008" type="line"/>
			<point x="105.496887207" y="1164.4383544922" type="line"/>
			<point x="63.9575805664" y="1280.9214477539" type="line"/>
			<point x="518.4326171875" y="1532.75390625" type="line"/>
			<point x="565.0106201172" y="1498.9262084961" type="line"/>
			<point x="569.0309448242" y="1474.8610229492"/>
			<point x="563.0073852539" y="1381.2149047852"/>
			<point x="554.3480224609" y="1340.9329223633" type="qcurve" smooth="yes"/>
			<point x="428.6487426758" y="727.3671875" type="line"/>
			<point x="331.1098022461" y="125.2984008789" type="line"/>
			<point x="174.174621582" y="-43.981262207" type="line"/>
		</contour>
	</outline>
</glyph>
<glyph name="two" format="2">
	<unicode hex="0032"/>
	<advance width="916"/>
	<outline>
		<contour>
			<point x="-67.866394043" y="12.6796875" type="qcurve"/>
			<point x="-95.8612670898" y="54.4619140625" type="line"/>
			<point x="20.8448486328" y="176.7608032227" type="line" smooth="yes"/>
			<point x="386.6065673828" y="572.7059936523"/>
			<point x="668.8279418945" y="1032.3471679688"/>
			<point x="672.4178466797" y="1199.505859375" type="qcurve" smooth="yes"/>
			<point x="676.6406860352" y="1286.9828491211"/>
			<point x="560.2637939453" y="1380.780456543"/>
			<point x="460.3778686523" y="1380.780456543" type="qcurve" smooth="yes"/>
			<point x="393.8267211914" y="1381.780456543"/>
			<point x="255.4076538086" y="1314.805847168"/>
			<point x="194.249206543" y="1235.3035888672" type="qcurve"/>
			<point x="113.9142456055" y="1302.0096435547" type="line"/>
			<point x="190.7922973633" y="1413.091003418"/>
			<point x="413.8674316406" y="1550.7340087891"/>
			<point x="549.7257080078" y="1550.7340087891" type="qcurve" smooth="yes"/>
			<point x="704.620300293" y="1550.7340087891"/>
			<point x="867.6220703125" y="1369.3989868164"/>
			<point x="859.9419555664" y="1246.1181640625" type="qcurve" smooth="yes"/>
			<point x="847.2300415039" y="1059.1070556641"/>
			<point x="619.9259033203" y="614.4506835938"/>
			<point x="264.6530761719" y="274.5337524414" type="qcurve"/>
			<point x="264.3153686523" y="289.4418945312" type="line"/>
			<point x="241.4214477539" y="258.7344360352"/>
			<point x="160.7300415039" y="256.6009521484"/>
			<point x="111.8799438477" y="265.0311889648" type="qcurve"/>
			<point x="272.5407104492" y="220.8851318359"/>
			<point x="508.3016967773" y="180.0889892578"/>
			<point x="617.7559204102" y="158.8065795898" type="qcurve"/>
			<point x="718.8358764648" y="379.7517700195" type="line"/>
			<point x="793.3275146484" y="364.6950683594" type="line"/>
			<point x="642.4176025391" y="-29.1156005859" type="line"/>
			<point x="449.1177368164" y="38.5009765625"/>
			<point x="167.8645629883" y="109.6170043945"/>
			<point x="87.8771972656" y="109.8974609375" type="qcurve" smooth="yes"/>
			<point x="12.1646728516" y="111.206237793"/>
			<point x="-22.3455810547" y="58.302734375"/>
		</contour>
	</outline>
</glyph>
<glyph name="three" format="2">
	<unicode hex="0033"/>
	<advance width="927"/>
	<outline>
		<contour>
			<point x="-75.982421875" y="196.6345825195" type="qcurve"/>
			<point x="-75.717590332" y="237.4305419922"/>
			<point x="9.4290161133" y="329.3788452148"/>
			<point x="72.8239746094" y="323.0869140625" type="qcurve"/>
			<point x="88.1881713867" y="319.9566040039" type="line"/>
			<point x="87.5139770508" y="304.8150024414"/>
			<point x="85.598815918" y="284.0447387695"/>
			<point x="86.5026855469" y="229.846496582" type="qcurve" smooth="yes"/>
			<point x="85.9730224609" y="155.8359985352"/>
			<point x="178.5640869141" y="87.4049072266"/>
			<point x="260.0477905273" y="87.4049072266" type="qcurve" smooth="yes"/>
			<point x="428.4417114258" y="87.4049072266"/>
			<point x="630.2303466797" y="293.1588745117"/>
			<point x="630.3619384766" y="450.3600463867" type="qcurve" smooth="yes"/>
			<point x="632.0841674805" y="604.1625976562"/>
			<point x="483.7249145508" y="786.3952636719"/>
			<point x="367.4175415039" y="788.1366577148" type="qcurve" smooth="yes"/>
			<point x="271.5183105469" y="789.7001953125" type="line"/>
			<point x="283.4844360352" y="887.557434082" type="line"/>
			<point x="346.4526367188" y="884.8741455078" type="line" smooth="yes"/>
			<point x="498.1474609375" y="875.9204101562"/>
			<point x="677.4962158203" y="1073.9893798828"/>
			<point x="678.2907104492" y="1220.9218139648" type="qcurve" smooth="yes"/>
			<point x="678.8203735352" y="1308.9481811523"/>
			<point x="582.6860351562" y="1387.3338623047"/>
			<point x="480.0023193359" y="1387.3338623047" type="qcurve" smooth="yes"/>
			<point x="387.0205078125" y="1387.3338623047"/>
			<point x="278.7307739258" y="1317.8176269531"/>
			<point x="229.6344604492" y="1240.3729858398" type="qcurve"/>
			<point x="162.5609130859" y="1305.2258300781" type="line"/>
			<point x="214.6122436523" y="1412.2401123047"/>
			<point x="403.4092407227" y="1552.0115356445"/>
			<point x="551.307434082" y="1552.0115356445" type="qcurve" smooth="yes"/>
			<point x="683.9017944336" y="1552.0115356445"/>
			<point x="855.3483886719" y="1405.0210571289"/>
			<point x="854.553894043" y="1263.5173950195" type="qcurve" smooth="yes"/>
			<point x="854.024230957" y="1130.827331543"/>
			<point x="709.6338500977" y="894.7713623047"/>
			<point x="569.4447021484" y="853.9357910156" type="qcurve"/>
			<point x="568.4447021484" y="846.8225097656" type="line"/>
			<point x="686.5716552734" y="812.5715332031"/>
			<point x="814.6121826172" y="622.0274047852"/>
			<point x="813.8176879883" y="478.8897705078" type="qcurve" smooth="yes"/>
			<point x="813.0231933594" y="287.0980224609"/>
			<point x="483.7012939453" y="-15"/>
			<point x="220.2130126953" y="-15" type="qcurve" smooth="yes"/>
			<point x="83.1419067383" y="-15"/>
			<point x="-76.247253418" y="111.2694091797"/>
		</contour>
	</outline>
</glyph>
<glyph name="four" format="2">
	<unicode hex="0034"/>
	<advance width="906"/>
	<outline>
		<contour>
			<point x="41.9764404297" y="450.9747314453" type="line"/>
			<point x="13" y="539" type="line"/>
			<point x="854.6757202148" y="1575.52734375" type="line"/>
			<point x="922.078918457" y="1541.3257446289" type="line"/>
			<point x="914.7192382812" y="1486.6628417969" type="line"/>
			<point x="736.3944702148" y="521.552734375" type="line"/>
			<point x="731.3944702148" y="494.552734375" type="line"/>
			<point x="666.4965820312" y="97.7600097656" type="line"/>
			<point x="656.7344970703" y="20.9548339844" type="line"/>
			<point x="483.9281005859" y="-43.5612792969" type="line"/>
			<point x="469.2651977539" y="-22.2354736328" type="line"/>
			<point x="568.3638916016" y="496.552734375" type="line"/>
			<point x="573.3638916016" y="521.552734375" type="line"/>
			<point x="705.3951416016" y="1245.1450195312" type="line"/>
			<point x="168" y="559" type="line"/>
			<point x="244.6235961914" y="574.8997802734" type="line"/>
			<point x="650.2086791992" y="574.3229980469" type="line"/>
			<point x="824.2233886719" y="573.419128418" type="line"/>
			<point x="800.6653442383" y="449.9747314453" type="line"/>
			<point x="628.6506347656" y="438.5515136719" type="line"/>
		</contour>
	</outline>
</glyph>
<glyph name="five" format="2">
	<unicode hex="0035"/>
	<advance width="800"/>
	<outline>
		<contour>
			<point x="-121.419921875" y="233.2001953125" type="qcurve" smooth="yes"/>
			<point x="-121.419921875" y="283.2173461914"/>
			<point x="-67.8708496094" y="320.5583496094"/>
			<point x="-17.4260864258" y="328.3811035156" type="qcurve"/>
			<point x="-4.3876953125" y="323.6162109375" type="line"/>
			<point x="-2.0844726562" y="233.2192382812" type="line" smooth="yes"/>
			<point x="47.5880737305" y="187.3023071289"/>
			<point x="135.1397705078" y="94.6187133789"/>
			<point x="230.8489990234" y="94.6187133789" type="qcurve" smooth="yes"/>
			<point x="420.141418457" y="94.6187133789"/>
			<point x="589.0648193359" y="345.0502319336"/>
			<point x="593.6180419922" y="543.724609375" type="qcurve" smooth="yes"/>
			<point x="597.1712646484" y="719.0903930664"/>
			<point x="420.2705078125" y="891.9057617188"/>
			<point x="193.6792602539" y="830.75390625" type="qcurve" smooth="yes"/>
			<point x="98.018371582" y="803.7272949219" type="line"/>
			<point x="66.4268188477" y="867.9371337891" type="line"/>
			<point x="193.1559448242" y="1474.373840332" type="line"/>
			<point x="241.2021484375" y="1527.8955078125" type="line"/>
			<point x="868.6903076172" y="1527.8955078125" type="line"/>
			<point x="844.4661254883" y="1360.8649291992" type="line"/>
			<point x="298.3842163086" y="1360.8649291992" type="line"/>
			<point x="282.0809936523" y="1345.0263671875" type="line"/>
			<point x="262.7998046875" y="1233.3140869141"/>
			<point x="212.0659179688" y="976.325378418"/>
			<point x="177.9346313477" y="911.9299316406" type="qcurve"/>
			<point x="387.0808105469" y="955.8373413086" type="line"/>
			<point x="574.6173095703" y="965.3302612305"/>
			<point x="792.038269043" y="760.9149169922"/>
			<point x="788.7734375" y="548.9033203125" type="qcurve" smooth="yes"/>
			<point x="784.2437744141" y="327.9998168945"/>
			<point x="457.1984863281" y="-15"/>
			<point x="217.8350830078" y="-15" type="qcurve" smooth="yes"/>
			<point x="52.6904907227" y="-15"/>
			<point x="-121.419921875" y="132.8408203125"/>
		</contour>
	</outline>
</glyph>
<glyph name="six" format="2">
	<unicode hex="0036"/>
	<advance width="1092"/>
	<outline>
		<contour>
			<point x="41" y="480.119140625" type="qcurve" smooth="yes"/>
			<point x="59.3099975586" y="863.2646484375"/>
			<point x="642.4932861328" y="1460.3309326172"/>
			<point x="995.9897460938" y="1580.549621582" type="qcurve"/>
			<point x="1038.64453125" y="1485.0261230469" type="line"/>
			<point x="833.9451904297" y="1405.3635864258"/>
			<point x="231.4354858398" y="894.8784790039"/>
			<point x="213.9616088867" y="442.8501586914" type="qcurve" smooth="yes"/>
			<point x="204.7608032227" y="254.8068847656"/>
			<point x="373.616394043" y="102.9458007812"/>
			<point x="503.6860961914" y="103.6087036133" type="qcurve" smooth="yes"/>
			<point x="621.1486816406" y="103.6087036133"/>
			<point x="813.1764526367" y="330.1625976562"/>
			<point x="817.6427612305" y="563.2279052734" type="qcurve" smooth="yes"/>
			<point x="824.742980957" y="608.233581543"/>
			<point x="737.8845214844" y="793.6650390625"/>
			<point x="595.9851074219" y="793.6650390625" type="qcurve" smooth="yes"/>
			<point x="589.498840332" y="793.6650390625"/>
			<point x="534.0000610352" y="782.5979614258"/>
			<point x="498.8687744141" y="765.6619262695" type="qcurve"/>
			<point x="474.5868530273" y="831.2882080078" type="line"/>
			<point x="524.1845092773" y="873.5250854492"/>
			<point x="647.2299194336" y="934.6958007812"/>
			<point x="677.2037353516" y="934.6958007812" type="qcurve" smooth="yes"/>
			<point x="828.9408569336" y="934.6958007812"/>
			<point x="1007.9235229492" y="694.5279541016"/>
			<point x="1001.6361083984" y="565.9662475586" type="qcurve" smooth="yes"/>
			<point x="994.4096679688" y="298.2603759766"/>
			<point x="663.3793334961" y="-14.337097168"/>
			<point x="449.8681030273" y="-14.337097168" type="qcurve" smooth="yes"/>
			<point x="259.4086303711" y="-15"/>
			<point x="30.0383911133" y="243.9177856445"/>
		</contour>
	</outline>
</glyph>
<glyph name="seven" format="2">
	<unicode hex="0037"/>
	<advance width="914"/>
	<outline>
		<contour>
			<point x="94.8343505859" y="1195.4516601562" type="line"/>
			<point x="229.1958618164" y="1527.9521484375" type="line"/>
			<point x="1019.2623291016" y="1527.9521484375" type="line"/>
			<point x="1029.2416992188" y="1483.9321899414" type="line"/>
			<point x="723.5845336914" y="1083.8413085938"/>
			<point x="336.662109375" y="374.2061767578"/>
			<point x="290.1496582031" y="34.0548095703" type="qcurve"/>
			<point x="129.8384399414" y="-14" type="line"/>
			<point x="86.9965209961" y="65.7402954102" type="line"/>
			<point x="192.9957885742" y="409.1568603516"/>
			<point x="632.7712402344" y="1106.7144775391"/>
			<point x="817.4060668945" y="1356.2247924805" type="qcurve"/>
			<point x="809.9950561523" y="1366.2247924805" type="line"/>
			<point x="299.4762573242" y="1366.2247924805" type="line"/>
			<point x="195.8347167969" y="1195.9565429688" type="line"/>
		</contour>
	</outline>
</glyph>
<glyph name="eight" format="2">
	<unicode hex="0038"/>
	<advance width="889"/>
	<outline>
		<contour>
			<point x="405.2041625977" y="853.9730224609" type="qcurve"/>
			<point x="480.2135009766" y="791.0570678711" type="line"/>
			<point x="342.0736694336" y="725.6334838867"/>
			<point x="112.3076171875" y="472.8182373047"/>
			<point x="112.014465332" y="339.8830566406" type="qcurve" smooth="yes"/>
			<point x="111.9861450195" y="221.9920043945"/>
			<point x="238.1899414062" y="98.1380615234"/>
			<point x="359.8052368164" y="98.1380615234" type="qcurve" smooth="yes"/>
			<point x="496.1215820312" y="98.1380615234"/>
			<point x="673.7684936523" y="257.3700561523"/>
			<point x="674.0616455078" y="411.4315185547" type="qcurve" smooth="yes"/>
			<point x="674.3547973633" y="522.5096435547"/>
			<point x="498.7320556641" y="716.3396606445"/>
			<point x="407.8287353516" y="795.5344848633" type="qcurve" smooth="yes"/>
			<point x="310.7367553711" y="880.82421875"/>
			<point x="226.6594848633" y="1052.0418701172"/>
			<point x="226.9243164062" y="1185.0642089844" type="qcurve" smooth="yes"/>
			<point x="227.4539794922" y="1334.8170166016"/>
			<point x="440.7498168945" y="1556.8671875"/>
			<point x="641.9702758789" y="1556.8671875" type="qcurve" smooth="yes"/>
			<point x="765.8204956055" y="1556.602355957"/>
			<point x="937.0841064453" y="1415.6482543945"/>
			<point x="936.5544433594" y="1304.864074707" type="qcurve" smooth="yes"/>
			<point x="936.3462524414" y="1176.4755859375"/>
			<point x="766.6205444336" y="948.5352172852"/>
			<point x="580.349609375" y="846.4946899414" type="qcurve"/>
			<point x="514.8075561523" y="913.2760009766" type="line"/>
			<point x="673.1826782227" y="1000.1441650391"/>
			<point x="759.8355102539" y="1193.8233032227"/>
			<point x="759.8355102539" y="1266.4420166016" type="qcurve" smooth="yes"/>
			<point x="760.1286621094" y="1357.4436035156"/>
			<point x="676.4105834961" y="1446.7343139648"/>
			<point x="622.3300170898" y="1446.7343139648" type="qcurve" smooth="yes"/>
			<point x="481.5971679688" y="1446.7343139648"/>
			<point x="374.8413696289" y="1311.2639770508"/>
			<point x="374.8413696289" y="1207.8887939453" type="qcurve" smooth="yes"/>
			<point x="374.5765380859" y="1136.4759521484"/>
			<point x="483.7877807617" y="998.9708251953"/>
			<point x="623.2645874023" y="869.2964477539" type="qcurve" smooth="yes"/>
			<point x="731.265625" y="764.7671508789"/>
			<point x="835.2266845703" y="555.6165161133"/>
			<point x="834.9052124023" y="416.2090454102" type="qcurve" smooth="yes"/>
			<point x="834.3189086914" y="238.6376953125"/>
			<point x="543.1821899414" y="-12"/>
			<point x="360.6743774414" y="-12" type="qcurve" smooth="yes"/>
			<point x="157.0632324219" y="-12"/>
			<point x="-75.9505004883" y="170.3134765625"/>
			<point x="-75.6573486328" y="326.060546875" type="qcurve" smooth="yes"/>
			<point x="-75.0993652344" y="488.3513793945"/>
			<point x="204.4507446289" y="766.1118164062"/>
		</contour>
	</outline>
</glyph>
<glyph name="nine" format="2">
	<unicode hex="0039"/>
	<advance width="1135"/>
	<outline>
		<contour>
			<point x="82.8110351562" y="-46.3414306641" type="qcurve"/>
			<point x="41.674621582" y="48.1820678711" type="line"/>
			<point x="339.0788574219" y="162.8446044922"/>
			<point x="884.4819946289" y="628.8558959961"/>
			<point x="900.4085693359" y="1071.8455200195" type="qcurve" smooth="yes"/>
			<point x="905.4681396484" y="1203.8906860352"/>
			<point x="771.0785522461" y="1420.3817138672"/>
			<point x="639.0936279297" y="1420.3817138672" type="qcurve" smooth="yes"/>
			<point x="518.9234008789" y="1420.3817138672"/>
			<point x="320.1373901367" y="1213.5119628906"/>
			<point x="301.6664428711" y="1007.1306762695" type="qcurve" smooth="yes"/>
			<point x="285.1232299805" y="935.125"/>
			<point x="351.7498779297" y="752.9767456055"/>
			<point x="516.6228027344" y="752.9767456055" type="qcurve" smooth="yes"/>
			<point x="521.8442382812" y="752.9767456055"/>
			<point x="579.0059204102" y="774.3809204102"/>
			<point x="606.5352783203" y="805.3169555664" type="qcurve"/>
			<point x="628.8284912109" y="737.6906738281" type="line"/>
			<point x="602.0975952148" y="693.4537963867"/>
			<point x="483.7263793945" y="619.9459838867"/>
			<point x="439.4877319336" y="618.9459838867" type="qcurve" smooth="yes"/>
			<point x="278.0154418945" y="616.6811523438"/>
			<point x="106.4082641602" y="856.8306274414"/>
			<point x="116.9379272461" y="1003.3923339844" type="qcurve" smooth="yes"/>
			<point x="128.2027587891" y="1247.3842163086"/>
			<point x="472.4527587891" y="1541.3275146484"/>
			<point x="676.6991577148" y="1541.3275146484" type="qcurve" smooth="yes"/>
			<point x="858.4193115234" y="1541.3275146484"/>
			<point x="1084.8998413086" y="1233.6734619141"/>
			<point x="1073.6350097656" y="1034.5765380859" type="qcurve" smooth="yes"/>
			<point x="1052.3701782227" y="641.4310302734"/>
			<point x="445.9812011719" y="76.2640380859"/>
		</contour>
	</outline>
</glyph>
<glyph name="A" format="2">
	<unicode hex="0041"/>
	<advance width="1273"/>
	<outline>
		<contour>
			<point x="-259.1083984375" y="0" type="line"/>
			<point x="-245.2567749023" y="99.9987792969" type="line"/>
			<point x="-54.7771606445" y="133.9987792969" type="line"/>
			<point x="209.556640625" y="563.7776489258" type="line"/>
			<point x="792.9968261719" y="1526" type="line"/>
			<point x="936.9832763672" y="1515" type="line"/>
			<point x="1025.9763183594" y="561" type="line"/>
			<point x="1081.2701416016" y="124.9987792969" type="line"/>
			<point x="1237.3149414062" y="99.9987792969" type="line"/>
			<point x="1216.5062866211" y="0" type="line"/>
			<point x="675.5236206055" y="0" type="line"/>
			<point x="697.3322753906" y="99.9987792969" type="line"/>
			<point x="897.3770751953" y="123.9987792969" type="line"/>
			<point x="862.6810913086" y="547" type="line"/>
			<point x="792.3851318359" y="1198.9942626953" type="line"/>
			<point x="782.7734375" y="1275.65625" type="line"/>
			<point x="773.7734375" y="1280.65625" type="line"/>
			<point x="723.7811889648" y="1200.4677124023" type="line"/>
			<point x="297.4905395508" y="537.6667480469" type="line"/>
			<point x="79.5552978516" y="133.9987792969" type="line"/>
			<point x="288.1219482422" y="99.9987792969" type="line"/>
			<point x="274.270324707" y="0" type="line"/>
		</contour>
		<contour>
			<point x="238.225769043" y="516.8892211914" type="line"/>
			<point x="291.5440063477" y="614.3330078125" type="line"/>
			<point x="628.0738525391" y="606.6663818359" type="line"/>
			<point x="606.0739746094" y="521.1113891602" type="line"/>
		</contour>
		<contour>
			<point x="631.1280517578" y="601.6663818359" type="line"/>
			<point x="948.3370361328" y="612.9996948242" type="line"/>
			<point x="952.137512207" y="521.555847168" type="line"/>
			<point x="609.1281738281" y="521.1113891602" type="line"/>
		</contour>
	</outline>
	<anchor name="bottom" x="523" y="0"/>
	<anchor name="ogonek" x="1098" y="0"/>
	<anchor name="top" x="954" y="1500"/>
	<anchor name="tonos" x="613" y="1500"/>
</glyph>
<glyph name="C" format="2">
	<unicode hex="0043"/>
	<advance width="1389"/>
	<outline>
		<contour>
			<point x="67.6010014196" y="754" type="qcurve" smooth="yes"/>
			<point x="144.487109818" y="1120"/>
			<point x="693.0397338867" y="1554.2448120117"/>
			<point x="1037.4194393518" y="1529.2864990234" type="qcurve" smooth="yes"/>
			<point x="1121.6110229492" y="1524.6509399414"/>
			<point x="1305.9711303711" y="1463.8559570312"/>
			<point x="1362.8265991211" y="1420.5142822266" type="qcurve"/>
			<point x="1391.233215332" y="1399.2864990234" type="line"/>
			<point x="1431.9291439416" y="1379.2864990234" type="line"/>
			<point x="1372.5026913049" y="1108.9903564453" type="line"/>
			<point x="1270.7797909143" y="1107.9903564453" type="line"/>
			<point x="1250.6535702112" y="1122.6212768555" type="line"/>
			<point x="1232.5040951135" y="1257.3037719727"/>
			<point x="1111.1967220666" y="1395.407409668"/>
			<point x="1012.9606991174" y="1399.6207275391" type="qcurve" smooth="yes"/>
			<point x="737.5873470666" y="1422.2650756836"/>
			<point x="339.0823856969" y="1137"/>
			<point x="259.8540531774" y="752" type="qcurve" smooth="yes"/>
			<point x="184.0273930211" y="392"/>
			<point x="457.9512153881" y="135.6883544922"/>
			<point x="649.2064033764" y="104.4906005859" type="qcurve" smooth="yes"/>
			<point x="946.7380195873" y="58.2951049805"/>
			<point x="1232.5202519078" y="268.8242797852"/>
			<point x="1244.9037357946" y="411.4911499023" type="qcurve"/>
			<point x="1273.2369267125" y="406.6022949219" type="line"/>
			<point x="1298.1256596227" y="339.2694702148" type="line"/>
			<point x="1254.7268559117" y="152.6962280273"/>
			<point x="866.5674873607" y="-57.4368286133"/>
			<point x="579.5128666539" y="-13.286315918" type="qcurve" smooth="yes"/>
			<point x="350.9533516186" y="27.7986450195"/>
			<point x="-4.1056636195" y="417"/>
		</contour>
	</outline>
	<anchor name="bottom" x="596" y="0"/>
	<anchor name="top" x="906" y="1500"/>
</glyph>
<glyph name="E" format="2">
	<unicode hex="0045"/>
	<advance width="1166"/>
	<outline>
		<contour>
			<point x="-68.2891235352" y="0" type="line"/>
			<point x="-50.198059082" y="100.9987792969" type="line"/>
			<point x="145.4772949219" y="124.9987792969" type="line"/>
			<point x="298.2775268555" y="799" type="line"/>
			<point x="409.4777832031" y="1361.8013916016" type="line"/>
			<point x="230.3543701172" y="1388.8013916016" type="line"/>
			<point x="242.8845825195" y="1500" type="line"/>
			<point x="1230.2241821289" y="1500" type="line"/>
			<point x="1154.4106445312" y="1127.3712768555" type="line"/>
			<point x="1055.2479858398" y="1127.3712768555" type="line"/>
			<point x="1053.7283325195" y="1390.6674194336" type="line"/>
			<point x="613.0640869141" y="1390.6674194336" type="line"/>
			<point x="586.0640869141" y="1371.6674194336" type="line"/>
			<point x="463.397277832" y="787" type="line"/>
			<point x="320.1749267578" y="128.5548706055" type="line"/>
			<point x="336.9526977539" y="106.5548706055" type="line"/>
			<point x="834.7769165039" y="106.5548706055" type="line"/>
			<point x="991.4583740234" y="408.8510131836" type="line"/>
			<point x="1092.4610595703" y="408.8510131836" type="line"/>
			<point x="971.001953125" y="0" type="line"/>
		</contour>
		<contour>
			<point x="365.0552368164" y="750.1113891602" type="line"/>
			<point x="385.841796875" y="834.9997558594" type="line"/>
			<point x="826.6878662109" y="846.9996948242" type="line"/>
			<point x="903.1741333008" y="1008.2958374023" type="line"/>
			<point x="1012.5770874023" y="1008.2958374023" type="line"/>
			<point x="917.2713623047" y="558.5931396484" type="line"/>
			<point x="817.2686767578" y="558.5931396484" type="line"/>
			<point x="813.5327148438" y="733.8892822266" type="line"/>
		</contour>
	</outline>
	<anchor name="bottom" x="518" y="0"/>
	<anchor name="ogonek" x="827" y="0"/>
	<anchor name="top" x="789" y="1500"/>
	<anchor name="tonos" x="81" y="1500"/>
</glyph>
<glyph name="F" format="2">
	<unicode hex="0046"/>
	<advance width="1125"/>
	<outline>
		<contour>
			<point x="-69.8147583008" y="0" type="line"/>
			<point x="-51.6149902344" y="100.9987792969" type="line"/>
			<point x="141.9690551758" y="126.9987792969" type="line"/>
			<point x="294.9692993164" y="809" type="line"/>
			<point x="411.3695678711" y="1361.8013916016" type="line"/>
			<point x="231.1331787109" y="1388.8013916016" type="line"/>
			<point x="243.5546875" y="1500" type="line"/>
			<point x="1178.9563598633" y="1500" type="line"/>
			<point x="1132.725402832" y="1133.4193725586" type="line"/>
			<point x="1041.1229858398" y="1133.4193725586" type="line"/>
			<point x="1011.5762939453" y="1398.4451293945" type="line"/>
			<point x="649.0180664062" y="1398.4451293945" type="line"/>
			<point x="588.0180664062" y="1375.4451293945" type="line"/>
			<point x="462.795715332" y="801" type="line"/>
			<point x="313.7954711914" y="123.9987792969" type="line"/>
			<point x="553.2580566406" y="99.9987792969" type="line"/>
			<point x="535.1669921875" y="0" type="line"/>
		</contour>
		<contour>
			<point x="359.0892333984" y="715.2225341797" type="line"/>
			<point x="379.3824462891" y="814.1107788086" type="line"/>
			<point x="786.5091552734" y="823.7774047852" type="line"/>
			<point x="868.9683837891" y="985.0735473633" type="line"/>
			<point x="969.9710693359" y="985.0735473633" type="line"/>
			<point x="866.9146118164" y="500.7042236328" type="line"/>
			<point x="766.9119262695" y="500.7042236328" type="line"/>
			<point x="763.3981933594" y="706.0003662109" type="line"/>
		</contour>
	</outline>
	<anchor name="bottom" x="578" y="0"/>
	<anchor name="top" x="622" y="1500"/>
</glyph>
<glyph name="G" format="2">
	<unicode hex="0047"/>
	<advance width="1435"/>
	<outline>
		<contour>
			<point x="86.9657755406" y="817" type="qcurve" smooth="yes"/>
			<point x="183.9657755406" y="1230"/>
			<point x="829.0203706929" y="1575.2883911133"/>
			<point x="1049.3725435444" y="1511.8578491211" type="qcurve" smooth="yes"/>
			<point x="1118.2252046772" y="1493.8578491211"/>
			<point x="1270.7460787007" y="1432.5560913086"/>
			<point x="1297.2686617085" y="1415.1432495117" type="qcurve" smooth="yes"/>
			<point x="1327.8967134663" y="1393.1430664062" type="line"/>
			<point x="1376.8467256733" y="1377" type="line"/>
			<point x="1284.8950655171" y="970.4825439453" type="line"/>
			<point x="1181.1721651264" y="970.4825439453" type="line"/>
			<point x="1183.5818330952" y="1076.5487670898" type="line"/>
			<point x="1192.7822725483" y="1186.6149291992"/>
			<point x="1098.7762300679" y="1353.9163208008"/>
			<point x="1010.2515108296" y="1390.7476196289" type="qcurve" smooth="yes"/>
			<point x="829.2583467671" y="1472.1200561523"/>
			<point x="377.872147611" y="1226"/>
			<point x="275.7521524938" y="798" type="qcurve" smooth="yes"/>
			<point x="178.518265775" y="392.7777709961"/>
			<point x="365.6909639546" y="144.34765625"/>
			<point x="525.9877168843" y="100.4588012695" type="qcurve" smooth="yes"/>
			<point x="618.7707369038" y="74.1254882812"/>
			<point x="954.228622646" y="135.5547485352"/>
			<point x="1045.7437593647" y="210.4434814453" type="qcurve"/>
			<point x="1123.7441866108" y="543.4012451172" type="line"/>
			<point x="938.2296602436" y="568.2012329102" type="line"/>
			<point x="952.0685884663" y="668" type="line"/>
			<point x="1477.2344209858" y="670" type="line"/>
			<point x="1461.5781099507" y="569.4012451172" type="line"/>
			<point x="1307.2772676655" y="543.4012451172" type="line"/>
			<point x="1223.996994228" y="195.3598632812" type="line"/>
			<point x="1138.2916719624" y="141.6799316406" type="line"/>
			<point x="1031.129806728" y="41.1866455078"/>
			<point x="645.7080537983" y="-45.4291992188"/>
			<point x="486.8545381733" y="-17.4291992188" type="qcurve" smooth="yes"/>
			<point x="265.8262178608" y="21.5708007812"/>
			<point x="-10.0342244594" y="404"/>
		</contour>
	</outline>
	<anchor name="bottom" x="667" y="0"/>
	<anchor name="top" x="907" y="1492"/>
</glyph>
<glyph name="K" format="2">
	<unicode hex="004B"/>
	<advance width="1042"/>
	<outline>
		<contour>
			<point x="-68.6781616211" y="0" type="line"/>
			<point x="-58.5653076172" y="99.9987792969" type="line"/>
			<point x="140.1969604492" y="124.9987792969" type="line"/>
			<point x="293.9971923828" y="806" type="line"/>
			<point x="405.3974609375" y="1360.8013916016" type="line"/>
			<point x="232.1827392578" y="1388.8013916016" type="line"/>
			<point x="243.4955444336" y="1500" type="line"/>
			<point x="814.7391357422" y="1500" type="line"/>
			<point x="801.4263305664" y="1388.8013916016" type="line"/>
			<point x="588.8771972656" y="1360.8013916016" type="line"/>
			<point x="459.2369384766" y="776" type="line"/>
			<point x="319.3833618164" y="124.9987792969" type="line"/>
			<point x="500.9284667969" y="99.9987792969" type="line"/>
			<point x="491.815612793" y="0" type="line"/>
		</contour>
		<contour>
			<point x="340.7957763672" y="514.1379394531" type="line"/>
			<point x="373.4477539062" y="671.3843994141" type="line"/>
			<point x="966.3206787109" y="1361.8013916016" type="line"/>
			<point x="798.4543457031" y="1388.8013916016" type="line"/>
			<point x="810.7671508789" y="1500" type="line"/>
			<point x="1355.5726318359" y="1500" type="line"/>
			<point x="1342.2598266602" y="1388.8013916016" type="line"/>
			<point x="1135.3195800781" y="1360.8013916016" type="line"/>
		</contour>
		<contour>
			<point x="526.5726928711" y="804.8307495117" type="line"/>
			<point x="660.1036987305" y="944.2688598633" type="line"/>
			<point x="951.7719116211" y="124.9987792969" type="line"/>
			<point x="1115.0559082031" y="100.9987792969" type="line"/>
			<point x="1106.9430541992" y="0" type="line"/>
			<point x="593.982421875" y="0" type="line"/>
			<point x="602.0952758789" y="99.9987792969" type="line"/>
			<point x="767.8788452148" y="124.9987792969" type="line"/>
		</contour>
	</outline>
	<anchor name="bottom" x="607" y="0"/>
	<anchor name="top" x="896" y="1500"/>
	<anchor name="kai_tail" x="1201" y="100"/>
</glyph>
<glyph name="L" format="2">
	<unicode hex="004C"/>
	<advance width="1193"/>
	<outline>
		<contour>
			<point x="-74.758972168" y="0" type="line"/>
			<point x="-65.7374267578" y="99.9987792969" type="line"/>
			<point x="136.2248535156" y="124.9987792969" type="line"/>
			<point x="291.0250854492" y="806" type="line"/>
			<point x="402.4253540039" y="1362.6013793945" type="line"/>
			<point x="231.8148803711" y="1389.6013793945" type="line"/>
			<point x="242.3276977539" y="1500" type="line"/>
			<point x="809.2118530273" y="1500" type="line"/>
			<point x="797.6990356445" y="1389.6013793945" type="line"/>
			<point x="580.9584350586" y="1362.6013793945" type="line"/>
			<point x="452.5581665039" y="754" type="line"/>
			<point x="319.1135864258" y="133.5548706055" type="line"/>
			<point x="347.1135864258" y="106.5548706055" type="line"/>
			<point x="857.8145141602" y="106.5548706055" type="line"/>
			<point x="1027.6248168945" y="475.4171142578" type="line"/>
			<point x="1143.8677978516" y="475.4171142578" type="line"/>
			<point x="995.9467163086" y="0" type="line"/>
		</contour>
	</outline>
	<anchor name="bottom" x="535" y="0"/>
	<anchor name="centerright" x="755" y="750"/>
	<anchor name="top" x="878" y="1500"/>
	<anchor name="topright" x="804" y="1001"/>
	<anchor name="center" x="397" y="750"/>
	<anchor name="liga" x="1104" y="0"/>
</glyph>
<glyph name="N" format="2">
	<unicode hex="004E"/>
	<advance width="1492"/>
	<outline>
		<contour>
			<point x="-91.7060546875" y="0" type="line"/>
			<point x="-82.5932006836" y="99.9987792969" type="line"/>
			<point x="137.9690551758" y="124.9987792969" type="line"/>
			<point x="277.9692993164" y="752" type="line"/>
			<point x="406.1695556641" y="1360.8013916016" type="line"/>
			<point x="214.2418823242" y="1388.8013916016" type="line"/>
			<point x="226.5546875" y="1500" type="line"/>
			<point x="619.7850341797" y="1500" type="line"/>
			<point x="846.0301513672" y="816.7169189453" type="line"/>
			<point x="1004.1721801758" y="328.8520507812" type="line"/>
			<point x="1031.3382568359" y="246.1313476562" type="line"/>
			<point x="1032.3382568359" y="246.1313476562" type="line"/>
			<point x="1050.973815918" y="334.1313476562" type="line"/>
			<point x="1138.5096435547" y="753" type="line"/>
			<point x="1255.9099121094" y="1361.0014038086" type="line"/>
			<point x="1036.2255859375" y="1388.0014038086" type="line"/>
			<point x="1050.4644775391" y="1500" type="line"/>
			<point x="1586.6239624023" y="1500" type="line"/>
			<point x="1572.3850708008" y="1388.0014038086" type="line"/>
			<point x="1369.1314697266" y="1361.0014038086" type="line"/>
			<point x="1238.7312011719" y="752" type="line"/>
			<point x="1091.7312011719" y="-4" type="line"/>
			<point x="953.1315917969" y="-4" type="line"/>
			<point x="691.6676025391" y="751.3649291992" type="line"/>
			<point x="512.7901000977" y="1229.4049072266" type="line"/>
			<point x="491.284362793" y="1292.227355957" type="line"/>
			<point x="490.284362793" y="1292.227355957" type="line"/>
			<point x="481.9998779297" y="1221.227355957" type="line"/>
			<point x="374.4130859375" y="742" type="line"/>
			<point x="251.6128540039" y="124.9987792969" type="line"/>
			<point x="494.9188842773" y="99.9987792969" type="line"/>
			<point x="485.8060302734" y="0" type="line"/>
		</contour>
	</outline>
	<anchor name="bottom" x="640" y="0"/>
	<anchor name="top" x="884" y="1500"/>
	<anchor name="engtail" x="1041" y="0"/>
	<anchor name="liga" x="1432" y="0"/>
</glyph>
<glyph name="S" format="2">
	<unicode hex="0053"/>
	<advance width="1001"/>
	<outline>
		<contour>
			<point x="-4.0861816406" y="5.7120361328" type="line"/>
			<point x="96.0402832031" y="509.5177001953" type="line"/>
			<point x="199.4030761719" y="509.5177001953" type="line"/>
			<point x="192.3923339844" y="366.2215576172" type="line" smooth="yes"/>
			<point x="186.7642211914" y="219.7770996094"/>
			<point x="294.4979858398" y="86.3325195312"/>
			<point x="449.094909668" y="86.3325195312" type="qcurve" smooth="yes"/>
			<point x="557.2893676758" y="86.3325195312"/>
			<point x="759.5513305664" y="179.8884887695"/>
			<point x="784.5513305664" y="285.6663208008" type="qcurve" smooth="yes"/>
			<point x="817.5513305664" y="439.3329467773"/>
			<point x="648.0460205078" y="620.0383911133"/>
			<point x="482.0972290039" y="741.7545166016" type="qcurve" smooth="yes"/>
			<point x="364.1451416016" y="826.7813720703"/>
			<point x="223.2407836914" y="1065.1114501953"/>
			<point x="252.2407836914" y="1258" type="qcurve" smooth="yes"/>
			<point x="281.2407836914" y="1388"/>
			<point x="511.6776123047" y="1522"/>
			<point x="640.3994140625" y="1522" type="qcurve" smooth="yes"/>
			<point x="752.3281860352" y="1522"/>
			<point x="916.0633544922" y="1476.5071411133"/>
			<point x="945.6921386719" y="1421.2763061523" type="qcurve"/>
			<point x="1004.8615112305" y="1523.2484741211" type="line"/>
			<point x="1097.4639282227" y="1503.1279907227" type="line"/>
			<point x="998.7819213867" y="1025.8427124023" type="line"/>
			<point x="887.1788330078" y="1025.8427124023" type="line"/>
			<point x="892.7672119141" y="1243.1921386719" type="line"/>
			<point x="920.8482055664" y="1325.5917358398"/>
			<point x="725.5197753906" y="1412.5563354492"/>
			<point x="663.4405517578" y="1412.5563354492" type="qcurve" smooth="yes"/>
			<point x="570.7797241211" y="1412.5563354492"/>
			<point x="429.0355834961" y="1332.6670532227"/>
			<point x="404.0355834961" y="1251.0536499023" type="qcurve" smooth="yes"/>
			<point x="381.0355834961" y="1126.1248168945"/>
			<point x="497.9161376953" y="985.9226074219"/>
			<point x="661.8341674805" y="861.6255493164" type="qcurve" smooth="yes"/>
			<point x="808.4124145508" y="742.4737548828"/>
			<point x="981.4529418945" y="503.9332275391"/>
			<point x="948.4529418945" y="317.3199462891" type="qcurve" smooth="yes"/>
			<point x="917.1596069336" y="144.7733154297"/>
			<point x="629.9857788086" y="-27"/>
			<point x="449.8048706055" y="-27" type="qcurve" smooth="yes"/>
			<point x="346.7601318359" y="-27"/>
			<point x="182.7045898438" y="67.719543457"/>
			<point x="149.0055541992" y="126.0388183594" type="qcurve"/>
			<point x="83.4891967773" y="-12.4084472656" type="line"/>
		</contour>
	</outline>
	<anchor name="bottom" x="399" y="0"/>
	<anchor name="top" x="679" y="1500"/>
</glyph>
<glyph name="V" format="2">
	<unicode hex="0056"/>
	<advance width="1155"/>
	<outline>
		<contour>
			<point x="-26.7172241211" y="1387.8013916016" type="line"/>
			<point x="-6.1348876953" y="1500" type="line"/>
			<point x="637.2133789062" y="1500" type="line"/>
			<point x="616.6310424805" y="1388.8013916016" type="line"/>
			<point x="374.8732910156" y="1363.8013916016" type="line"/>
			<point x="428.922668457" y="832.6723022461" type="line"/>
			<point x="476.7841796875" y="355.799987793" type="line"/>
			<point x="477.660949707" y="236.8336791992" type="line"/>
			<point x="485.660949707" y="234.8336791992" type="line"/>
			<point x="547.9692382812" y="353.4760131836" type="line"/>
			<point x="825.3094482422" y="859.3583374023" type="line"/>
			<point x="1101.0935668945" y="1362.8013916016" type="line"/>
			<point x="849.3573608398" y="1387.8013916016" type="line"/>
			<point x="862.6701660156" y="1500" type="line"/>
			<point x="1476.5570678711" y="1500" type="line"/>
			<point x="1466.0220336914" y="1387.8013916016" type="line"/>
			<point x="1210.8860473633" y="1364.8013916016" type="line"/>
			<point x="911.4177246094" y="803.9692382812" type="line"/>
			<point x="463.5700073242" y="-6.1430664062" type="line"/>
			<point x="344.253112793" y="-6.1430664062" type="line"/>
			<point x="267.9119873047" y="741.8874511719" type="line"/>
			<point x="213.353515625" y="1360.8013916016" type="line"/>
		</contour>
	</outline>
	<anchor name="bottom" x="373" y="0"/>
	<anchor name="top" x="743" y="1500"/>
</glyph>
<glyph name="W" format="2">
	<unicode hex="0057"/>
	<advance width="1703"/>
	<outline>
		<contour>
			<point x="-12.2912597656" y="1388.8013916016" type="line"/>
			<point x="11.0171508789" y="1500" type="line"/>
			<point x="593.3460693359" y="1500" type="line"/>
			<point x="571.0376586914" y="1387.8013916016" type="line"/>
			<point x="353.1885986328" y="1360.8013916016" type="line"/>
			<point x="415.649597168" y="810.6756591797" type="line"/>
			<point x="475.3521728516" y="371.5231323242" type="line"/>
			<point x="479.8032226562" y="266.1170654297" type="line"/>
			<point x="485.8032226562" y="265.1170654297" type="line"/>
			<point x="542.553894043" y="368.6347045898" type="line"/>
			<point x="647.1297607422" y="555.0437011719" type="line"/>
			<point x="926.077331543" y="1096.2926635742" type="line"/>
			<point x="882.7085571289" y="1368.2012939453" type="line"/>
			<point x="692.8378295898" y="1395.2012939453" type="line"/>
			<point x="713.6375732422" y="1500" type="line"/>
			<point x="1283.1510009766" y="1500" type="line"/>
			<point x="1262.5686645508" y="1387.8013916016" type="line"/>
			<point x="1052.1544189453" y="1362.8013916016" type="line"/>
			<point x="1118.5181884766" y="776.7296142578" type="line"/>
			<point x="1180.3258666992" y="370.0386962891" type="line"/>
			<point x="1188.1569824219" y="263.4104003906" type="line"/>
			<point x="1195.1569824219" y="262.4104003906" type="line"/>
			<point x="1243.3720092773" y="370.4571533203" type="line"/>
			<point x="1470.4538574219" y="833.0817260742" type="line"/>
			<point x="1683.1939697266" y="1352.8013916016" type="line"/>
			<point x="1456.9967651367" y="1388.8013916016" type="line"/>
			<point x="1470.3095703125" y="1500" type="line"/>
			<point x="2077.1750488281" y="1500" type="line"/>
			<point x="2064.8622436523" y="1388.0014038086" type="line"/>
			<point x="1828.0131835938" y="1347.0014038086" type="line"/>
			<point x="1568.5592041016" y="790.6298217773" type="line"/>
			<point x="1160.9011230469" y="-4.1430664062" type="line"/>
			<point x="1034.2825927734" y="-4.1430664062" type="line"/>
			<point x="954.8891601562" y="804.6965942383" type="line"/>
			<point x="941.9928588867" y="992.0546264648" type="line"/>
			<point x="940.9928588867" y="992.0546264648" type="line"/>
			<point x="759.2742919922" y="571.5408325195" type="line"/>
			<point x="448.3936767578" y="-4.1430664062" type="line"/>
			<point x="329.2298583984" y="-4.1430664062" type="line"/>
			<point x="252.596496582" y="759.5690917969" type="line"/>
			<point x="178.7535400391" y="1360.8013916016" type="line"/>
		</contour>
	</outline>
	<anchor name="bottom" x="691" y="0"/>
	<anchor name="top" x="981" y="1500"/>
</glyph>
<glyph name="X" format="2">
	<unicode hex="0058"/>
	<advance width="1153"/>
	<outline>
		<contour>
			<point x="-284.8026733398" y="0" type="line"/>
			<point x="-276.6898193359" y="99.9987792969" type="line"/>
			<point x="-54.9494628906" y="124.9987792969" type="line"/>
			<point x="543.4057617188" y="766.2405395508" type="line"/>
			<point x="264.785949707" y="1367.8013916016" type="line"/>
			<point x="78.2630004883" y="1388.8013916016" type="line"/>
			<point x="89.5758056641" y="1500" type="line"/>
			<point x="633.9619750977" y="1500" type="line"/>
			<point x="621.6491699219" y="1388.8013916016" type="line"/>
			<point x="454.452331543" y="1365.8013916016" type="line"/>
			<point x="623.8698120117" y="992.9736328125" type="line"/>
			<point x="669.391784668" y="916.0126342773" type="line"/>
			<point x="670.391784668" y="916.0126342773" type="line"/>
			<point x="747.5413818359" y="995.418762207" type="line"/>
			<point x="1055.7350463867" y="1351.8013916016" type="line"/>
			<point x="854.451171875" y="1388.8013916016" type="line"/>
			<point x="866.7639770508" y="1500" type="line"/>
			<point x="1438.6124267578" y="1500" type="line"/>
			<point x="1425.299621582" y="1388.8013916016" type="line"/>
			<point x="1182.4722290039" y="1348.8013916016" type="line"/>
			<point x="682.0397949219" y="815.6305541992" type="line"/>
			<point x="985.8954467773" y="124.9987792969" type="line"/>
			<point x="1180.2880249023" y="99.9987792969" type="line"/>
			<point x="1171.1751708984" y="0" type="line"/>
			<point x="598.1040039062" y="0" type="line"/>
			<point x="607.2168579102" y="99.9987792969" type="line"/>
			<point x="800.5223999023" y="124.9987792969" type="line"/>
			<point x="599.6761474609" y="574.9641723633" type="line"/>
			<point x="552.4608154297" y="664.6161499023" type="line"/>
			<point x="551.4608154297" y="664.6161499023" type="line"/>
			<point x="464.0581054688" y="573.9630126953" type="line"/>
			<point x="71.8109130859" y="123.9987792969" type="line"/>
			<point x="301.0947875977" y="99.9987792969" type="line"/>
			<point x="292.9819335938" y="0" type="line"/>
		</contour>
	</outline>
	<anchor name="bottom" x="453" y="0"/>
	<anchor name="top" x="723" y="1500"/>
	<anchor name="cy_descender" x="1125" y="100"/>
	<anchor name="center" x="591" y="791"/>
</glyph>
<glyph name="Y" format="2">
	<unicode hex="0059"/>
	<advance width="1192"/>
	<outline>
		<contour>
			<point x="216.7142333984" y="0" type="line"/>
			<point x="226.8270874023" y="99.9987792969" type="line"/>
			<point x="438.5676879883" y="124.9987792969" type="line"/>
			<point x="548.1457519531" y="630.8891601562" type="line"/>
			<point x="379.5220336914" y="962.4426879883" type="line"/>
			<point x="174.4320068359" y="1360.8013916016" type="line"/>
			<point x="3.6699829102" y="1387.8013916016" type="line"/>
			<point x="14.9827880859" y="1500" type="line"/>
			<point x="556.2378540039" y="1500" type="line"/>
			<point x="543.9250488281" y="1387.8013916016" type="line"/>
			<point x="374.7282104492" y="1361.8013916016" type="line"/>
			<point x="528.5833740234" y="1061.2552490234" type="line"/>
			<point x="681.8853759766" y="766.0883178711" type="line"/>
			<point x="682.8853759766" y="766.0883178711" type="line"/>
			<point x="953.0979614258" y="1079.1888427734" type="line"/>
			<point x="1197.552734375" y="1352.8013916016" type="line"/>
			<point x="1014.3121948242" y="1387.8013916016" type="line"/>
			<point x="1026.625" y="1500" type="line"/>
			<point x="1536.7724609375" y="1500" type="line"/>
			<point x="1523.4596557617" y="1387.8013916016" type="line"/>
			<point x="1325.6976318359" y="1353.8013916016" type="line"/>
			<point x="1027.9131469727" y="1010.7827148438" type="line"/>
			<point x="730.1524658203" y="686.5663452148" type="line"/>
			<point x="612.9807739258" y="124.9987792969" type="line"/>
			<point x="796.6129150391" y="99.9987792969" type="line"/>
			<point x="786.5000610352" y="0" type="line"/>
		</contour>
	</outline>
	<anchor name="bottom" x="443" y="0"/>
	<anchor name="top" x="731" y="1500"/>
	<anchor name="tonos" x="-13" y="1500"/>
	<anchor name="center" x="553" y="579"/>
</glyph>
<glyph name="Z" format="2">
	<unicode hex="005A"/>
	<advance width="1052"/>
	<outline>
		<contour>
			<point x="-127.6929321289" y="0" type="line"/>
			<point x="-144.9151000977" y="84.6661376953" type="line"/>
			<point x="444.8225097656" y="763.0020141602" type="line"/>
			<point x="953.3012084961" y="1381.6674194336" type="line"/>
			<point x="946.3012084961" y="1389.6674194336" type="line"/>
			<point x="322.8020019531" y="1389.6674194336" type="line"/>
			<point x="220.524597168" y="1159.7038574219" type="line"/>
			<point x="109.1216430664" y="1159.7038574219" type="line"/>
			<point x="186.3104858398" y="1500" type="line"/>
			<point x="1195.4882202148" y="1500" type="line"/>
			<point x="1187.0438232422" y="1415.8894042969" type="line"/>
			<point x="567.6125488281" y="666.774597168" type="line"/>
			<point x="92.4804077148" y="108.5548706055" type="line"/>
			<point x="94.4804077148" y="101.5548706055" type="line"/>
			<point x="725.7492675781" y="101.5548706055" type="line"/>
			<point x="875.0803833008" y="356.2961425781" type="line"/>
			<point x="980.2430419922" y="356.2961425781" type="line"/>
			<point x="891.7567749023" y="0" type="line"/>
		</contour>
	</outline>
	<anchor name="bottom" x="383" y="0"/>
	<anchor name="top" x="643" y="1500"/>
	<anchor name="_liga" x="0" y="0"/>
</glyph>
<glyph name="a" format="2">
	<unicode hex="0061"/>
	<advance width="956"/>
	<outline>
		<contour>
			<point x="-26.0026855469" y="250" type="qcurve" smooth="yes"/>
			<point x="-23.0026855469" y="566.5682373047"/>
			<point x="392.57756303" y="1006.5690917969"/>
			<point x="586.5613276784" y="1006.5690917969" type="qcurve" smooth="yes"/>
			<point x="650.0151851003" y="1006.5690917969"/>
			<point x="728.6116333008" y="969.5690917969"/>
			<point x="750.3036499023" y="942.5690917969" type="qcurve"/>
			<point x="818.4132080078" y="1000.5690917969" type="line"/>
			<point x="848.7808227539" y="994.5690917969" type="line"/>
			<point x="897.5275142018" y="973.5690917969" type="line"/>
			<point x="764.8281123464" y="402" type="line"/>
			<point x="727.8281123464" y="239" type="line"/>
			<point x="701.345568401" y="125"/>
			<point x="730.072497112" y="29"/>
			<point x="747.4534175221" y="0" type="qcurve"/>
			<point x="518.8608127401" y="-5" type="line"/>
			<point x="540.1642185018" y="19.8254394531"/>
			<point x="544.9882541463" y="116.3572387695"/>
			<point x="557.1492648885" y="177.7584838867" type="qcurve"/>
			<point x="496.6208835409" y="94.3952636719"/>
			<point x="321.1553684042" y="-5"/>
			<point x="178.6530490682" y="-5" type="qcurve" smooth="yes"/>
			<point x="67.9960666463" y="-5"/>
			<point x="-27.0026855469" y="127"/>
		</contour>
		<contour>
			<point x="137.0393676758" y="277" type="qcurve" smooth="yes"/>
			<point x="134.0393676758" y="145"/>
			<point x="195.609606487" y="96.6284179688"/>
			<point x="247.4355342214" y="96.6284179688" type="qcurve" smooth="yes"/>
			<point x="364.4948603932" y="96.6284179688"/>
			<point x="575.1792476003" y="251.7214355469"/>
			<point x="620.4266086385" y="451.6284179688" type="qcurve" smooth="yes"/>
			<point x="705.1118037526" y="802.8474121094" type="line"/>
			<point x="693.7338256836" y="825.8474121094"/>
			<point x="640.9247920339" y="871.8474121094"/>
			<point x="555.8138301198" y="871.8474121094" type="qcurve" smooth="yes"/>
			<point x="374.1442744557" y="871.8474121094"/>
			<point x="143.0393676758" y="527.5682373047"/>
		</contour>
	</outline>
	<anchor name="bottom" x="345" y="0"/>
	<anchor name="ogonek" x="732" y="0"/>
	<anchor name="top" x="608" y="1000"/>
</glyph>
<glyph name="b" format="2">
	<unicode hex="0062"/>
	<advance width="960"/>
	<outline>
		<contour>
			<point x="68.1173737575" y="201" type="qcurve" smooth="yes"/>
			<point x="148.848025613" y="594" type="line"/>
			<point x="304.7789948513" y="1433.6270141602" type="line"/>
			<point x="131.4725983669" y="1407.6270141602" type="line"/>
			<point x="159.6547272731" y="1481.8096313477" type="line"/>
			<point x="429.4626496364" y="1551.8096313477" type="line"/>
			<point x="491.4260895778" y="1502.3081054688" type="line"/>
			<point x="302.5439484646" y="585" type="line"/>
			<point x="233.8132966091" y="232" type="line" smooth="yes"/>
			<point x="220.6300080349" y="168.53515625"/>
			<point x="232.0037873317" y="113.9309082031"/>
			<point x="253.1551545192" y="113.9309082031" type="qcurve" smooth="yes"/>
			<point x="492.5504792263" y="113.9309082031"/>
			<point x="792.1107819606" y="375.2034301758"/>
			<point x="798.593325906" y="670.0823974609" type="qcurve" smooth="yes"/>
			<point x="801.593325906" y="780.7799072266"/>
			<point x="733.8197663356" y="871.8956298828"/>
			<point x="656.1944611599" y="871.8956298828" type="qcurve" smooth="yes"/>
			<point x="539.9580109646" y="871.8956298828"/>
			<point x="230.0156281521" y="613.0756835938"/>
			<point x="237.4433625271" y="579.9057617188" type="qcurve"/>
			<point x="257.7915070583" y="715.9182739258" type="line"/>
			<point x="226.4488556911" y="733.6954345703"/>
			<point x="618.4891388942" y="1011.0823974609"/>
			<point x="736.9773591091" y="1011.0823974609" type="qcurve" smooth="yes"/>
			<point x="855.4906647731" y="1011.0823974609"/>
			<point x="972.1076081325" y="848.0823974609"/>
			<point x="970.8663361599" y="721.0823974609" type="qcurve" smooth="yes"/>
			<point x="968.3837922146" y="395.2034301758"/>
			<point x="572.6966584255" y="-11"/>
			<point x="231.1551545192" y="-11" type="qcurve" smooth="yes"/>
			<point x="152.8982575466" y="-11"/>
			<point x="45.1173737575" y="92"/>
		</contour>
	</outline>
	<anchor name="bottom" x="571" y="0"/>
	<anchor name="top" x="571" y="1533"/>
</glyph>
<glyph name="c" format="2">
	<unicode hex="0063"/>
	<advance width="801"/>
	<outline>
		<contour>
			<point x="10.9766845703" y="505.473815918" type="qcurve" smooth="yes"/>
			<point x="52.1929931641" y="716.339050293"/>
			<point x="364.0187988281" y="1022.3766479492"/>
			<point x="546.7698974609" y="1022.3766479492" type="qcurve" smooth="yes"/>
			<point x="686.1131591797" y="1022.3766479492"/>
			<point x="810.3872070312" y="889.6817626953"/>
			<point x="810.3872070312" y="805.2825317383" type="qcurve" smooth="yes"/>
			<point x="810.3872070312" y="743.2164916992"/>
			<point x="717.0267333984" y="637.1508789062"/>
			<point x="649.5662231445" y="614.6843261719" type="qcurve"/>
			<point x="609.4888305664" y="633.6843261719" type="line"/>
			<point x="619.4888305664" y="825.6843261719" type="line" smooth="yes"/>
			<point x="621.4888305664" y="860.6843261719"/>
			<point x="576.9749755859" y="900.1133422852"/>
			<point x="516.3627319336" y="900.1133422852" type="qcurve" smooth="yes"/>
			<point x="388.4960327148" y="900.1133422852"/>
			<point x="204.7404174805" y="659.8613891602"/>
			<point x="176.0571289062" y="505.473815918" type="qcurve" smooth="yes"/>
			<point x="145.4279174805" y="339.0610351562"/>
			<point x="256.4331054688" y="124.1674804688"/>
			<point x="403.6096191406" y="124.1674804688" type="qcurve" smooth="yes"/>
			<point x="530.8491210938" y="124.1674804688"/>
			<point x="673.3914794922" y="219.1307983398"/>
			<point x="720.4827880859" y="271.6655273438" type="qcurve"/>
			<point x="772.5225219727" y="215.5338745117" type="line"/>
			<point x="772.5225219727" y="175.4013671875" type="line"/>
			<point x="712.8287963867" y="118.0036621094"/>
			<point x="448.7698364258" y="-11.4290161133"/>
			<point x="303.388671875" y="-11.4290161133" type="qcurve" smooth="yes"/>
			<point x="121.9967041016" y="-11.4290161133"/>
			<point x="-33.7125854492" y="274.1896972656"/>
		</contour>
	</outline>
	<anchor name="bottom" x="343" y="0"/>
	<anchor name="top" x="600" y="1000"/>
</glyph>
<glyph name="d" format="2">
	<unicode hex="0064"/>
	<advance width="1119"/>
	<outline>
		<contour>
			<point x="-26.2093024494" y="314.2703857422" type="qcurve" smooth="yes"/>
			<point x="-25.4796649557" y="570.5682373047"/>
			<point x="492.7211407084" y="966.3886108398"/>
			<point x="781.4770000834" y="986.9879760742" type="qcurve" smooth="yes"/>
			<point x="860.3527935404" y="986.9879760742" type="line"/>
			<point x="938.7581280131" y="1425.6920166016" type="line"/>
			<point x="754.2243145365" y="1407.46484375" type="line"/>
			<point x="782.4064434428" y="1481.6474609375" type="line"/>
			<point x="1054.8298443217" y="1551.6474609375" type="line"/>
			<point x="1122.6781109232" y="1544.6474609375" type="line"/>
			<point x="918.2188824076" y="469" type="line"/>
			<point x="861.4462993998" y="134.8646240234" type="line"/>
			<point x="1029.525278892" y="165.8646240234" type="line"/>
			<point x="1029.525278892" y="76" type="line"/>
			<point x="762.2548321146" y="-6" type="line"/>
			<point x="705.6771343607" y="75.6940917969" type="line"/>
			<point x="722.9899395365" y="238.2015380859" type="line"/>
			<point x="703.7410381693" y="167.0660400391"/>
			<point x="306.0940044779" y="-5"/>
			<point x="237.2815655131" y="-5" type="qcurve" smooth="yes"/>
			<point x="106.8379619974" y="-5"/>
			<point x="-26.450574422" y="147.1622314453"/>
		</contour>
		<contour>
			<point x="140.8327507733" y="328.2703857422" type="qcurve" smooth="yes"/>
			<point x="140.5973003764" y="220.5477905273"/>
			<point x="220.3043316264" y="96.530456543"/>
			<point x="310.9641827006" y="96.530456543" type="qcurve" smooth="yes"/>
			<point x="456.7406719584" y="96.530456543"/>
			<point x="737.0642803568" y="285.7319946289"/>
			<point x="770.2356060404" y="477.3975219727" type="qcurve" smooth="yes"/>
			<point x="824.1461285014" y="785.1251831055" type="line"/>
			<point x="828.1461285014" y="814.1251831055"/>
			<point x="727.3912456889" y="843.2585449219"/>
			<point x="667.7810772318" y="843.2585449219" type="qcurve" smooth="yes"/>
			<point x="404.9743145365" y="843.2585449219"/>
			<point x="141.3152947186" y="528.4361572266"/>
		</contour>
	</outline>
	<anchor name="bottom" x="604" y="0"/>
	<anchor name="center" x="876" y="1202"/>
	<anchor name="top" x="704" y="1534"/>
	<anchor name="topright" x="1076" y="1000"/>
	<anchor name="liga" x="1067" y="0"/>
</glyph>
<glyph name="e" format="2">
	<unicode hex="0065"/>
	<advance width="937"/>
	<outline>
		<contour>
			<point x="0.3610229492" y="476.6223144531" type="qcurve" smooth="yes"/>
			<point x="33.5232543945" y="704.2308959961"/>
			<point x="389.6140136719" y="1017.5287475586"/>
			<point x="576.4254760742" y="1017.5287475586" type="qcurve" smooth="yes"/>
			<point x="735.8193969727" y="1017.5287475586"/>
			<point x="902.1655883789" y="873.2096557617"/>
			<point x="896.2154541016" y="783.5541992188" type="qcurve" smooth="yes"/>
			<point x="897.8438110352" y="719.201171875"/>
			<point x="873.0507202148" y="662.4544677734"/>
			<point x="865.4132080078" y="644.4472045898" type="qcurve"/>
			<point x="914.4132080078" y="640.4472045898" type="line"/>
			<point x="881.3897705078" y="539.9118041992" type="line"/>
			<point x="840.8086547852" y="540.9118041992"/>
			<point x="629.8975830078" y="541.9118041992"/>
			<point x="562.084777832" y="541.9118041992" type="qcurve" smooth="yes"/>
			<point x="82.3653564453" y="538.9118041992" type="line"/>
			<point x="119.5938110352" y="636.4472045898" type="line"/>
			<point x="684.6997070312" y="642.4472045898" type="line"/>
			<point x="687.8681030273" y="665.5553588867"/>
			<point x="686.6151123047" y="643.5939941406"/>
			<point x="698.821472168" y="689.7901611328" type="qcurve" smooth="yes"/>
			<point x="711.7398071289" y="769.5280761719"/>
			<point x="641.0947265625" y="893.5978393555"/>
			<point x="555.387878418" y="893.5978393555" type="qcurve" smooth="yes"/>
			<point x="426.0700073242" y="893.5978393555"/>
			<point x="206.1723632812" y="710.9052124023"/>
			<point x="167.4290161133" y="485.2966308594" type="qcurve" smooth="yes"/>
			<point x="134.7938232422" y="293.5936279297"/>
			<point x="269.0985717773" y="108.9464111328"/>
			<point x="396.4959106445" y="90.0004882812" type="qcurve" smooth="yes"/>
			<point x="595.8914794922" y="66.4514770508"/>
			<point x="727.3206787109" y="185.1705932617"/>
			<point x="789.6318359375" y="293.4275512695" type="qcurve"/>
			<point x="831.2454223633" y="240.2092285156" type="line"/>
			<point x="859.3850708008" y="208.9619750977" type="line"/>
			<point x="781.8289794922" y="105.7149047852"/>
			<point x="500.8257446289" y="-30.0760498047"/>
			<point x="314.0258178711" y="-6" type="qcurve" smooth="yes"/>
			<point x="179.3881225586" y="14.3522338867"/>
			<point x="-29.6930541992" y="266.9733886719"/>
		</contour>
	</outline>
	<anchor name="bottom" x="339" y="0"/>
	<anchor name="ogonek" x="495" y="0"/>
	<anchor name="top" x="601" y="1000"/>
</glyph>
<glyph name="f" format="2">
	<unicode hex="0066"/>
	<advance width="474"/>
	<outline>
		<contour>
			<point x="-476.794128418" y="-359" type="line" smooth="yes"/>
			<point x="-460.7221069336" y="-187.6369628906" type="line"/>
			<point x="-367.036315918" y="-177.8641357422" type="line" smooth="yes"/>
			<point x="-166.036315918" y="-165.9329223633"/>
			<point x="30.8410644531" y="6.8646240234"/>
			<point x="102.8410644531" y="420.8646240234" type="qcurve" smooth="yes"/>
			<point x="186.4082641602" y="909.4742431641" type="line"/>
			<point x="190.9431762695" y="936.0557861328" type="line"/>
			<point x="211.307434082" y="1079.4310302734" type="line" smooth="yes"/>
			<point x="248.9966430664" y="1307.5932006836"/>
			<point x="467.7633056641" y="1522.4310302734"/>
			<point x="597.166809082" y="1522.4310302734" type="qcurve" smooth="yes"/>
			<point x="677.2868041992" y="1522.4310302734"/>
			<point x="774.0883789062" y="1455.4310302734"/>
			<point x="774.0883789062" y="1413.4310302734" type="qcurve" smooth="yes"/>
			<point x="774.0883789062" y="1377.4310302734"/>
			<point x="739.0883789062" y="1346.4310302734"/>
			<point x="713.0883789062" y="1346.4310302734" type="qcurve" smooth="yes"/>
			<point x="700.0883789062" y="1346.4310302734"/>
			<point x="684.0883789062" y="1368.4310302734"/>
			<point x="679.0883789062" y="1443.4310302734" type="qcurve" smooth="yes"/>
			<point x="677.0883789062" y="1392.6165771484"/>
			<point x="637.25390625" y="1394.7791748047"/>
			<point x="599.9143066406" y="1394.7791748047" type="qcurve" smooth="yes"/>
			<point x="524.2901000977" y="1394.7791748047"/>
			<point x="375.2028808594" y="1201.4719848633"/>
			<point x="332.6884765625" y="920.8721923828" type="qcurve" smooth="yes"/>
			<point x="346.7926635742" y="941.0557861328" type="line"/>
			<point x="348.4340820312" y="918.7301025391" type="line"/>
			<point x="304.0085449219" y="668" type="line" smooth="yes"/>
			<point x="208.866027832" y="116"/>
			<point x="-98.340637207" y="-392"/>
			<point x="-372.8811645508" y="-392" type="qcurve"/>
		</contour>
		<contour>
			<point x="11.1226806641" y="864.8228759766" type="line"/>
			<point x="6.6807861328" y="940.4976806641" type="line"/>
			<point x="198.8501586914" y="951.4976806641" type="line"/>
			<point x="571.4432373047" y="949.4976806641" type="line"/>
			<point x="564.0013427734" y="873.8228759766" type="line"/>
			<point x="294.9072265625" y="857.8228759766" type="line"/>
			<point x="216.59765625" y="853.8228759766" type="line"/>
		</contour>
	</outline>
	<anchor name="bottom" x="217" y="0"/>
	<anchor name="top" x="554" y="1536"/>
</glyph>
<glyph name="g" format="2">
	<unicode hex="0067"/>
	<advance width="1069"/>
	<outline>
		<contour>
			<point x="-30.2057877506" y="317" type="qcurve" smooth="yes"/>
			<point x="-9.7232438053" y="573.4060058594"/>
			<point x="425.2471541439" y="1006.8798217773"/>
			<point x="634.2379988705" y="1006.8798217773" type="qcurve" smooth="yes"/>
			<point x="728.2973860775" y="1006.8798217773"/>
			<point x="831.70851889" y="924.8798217773"/>
			<point x="850.7433089291" y="890.8798217773" type="qcurve"/>
			<point x="905.6671370541" y="986.8798217773" type="line"/>
			<point x="958.783531097" y="993.8798217773" type="line"/>
			<point x="1012.4008406673" y="928.8798217773" type="line"/>
			<point x="955.7519148861" y="639" type="line" smooth="yes"/>
			<point x="911.2789534603" y="410.4729614258"/>
			<point x="865.2519148861" y="221.5"/>
			<point x="843.2519148861" y="135.5" type="qcurve" smooth="yes"/>
			<point x="780.905784515" y="-115.5"/>
			<point x="315.8896712338" y="-400.5"/>
			<point x="176.8938826595" y="-400.5" type="qcurve"/>
			<point x="57.2941512142" y="-364.5" type="line"/>
			<point x="62.7547225033" y="-234.446472168" type="line"/>
			<point x="195.9784773861" y="-219.4462280273" type="line" smooth="yes"/>
			<point x="353.8015364681" y="-211.0563964844"/>
			<point x="659.9267806088" y="1.8116455078"/>
			<point x="703.4127425228" y="215.6370849609" type="qcurve" smooth="yes"/>
			<point x="682.9998396908" y="122.4686889648" type="line"/>
			<point x="625.1875838314" y="86.4669799805"/>
			<point x="340.334678558" y="-10"/>
			<point x="241.2654646908" y="-10" type="qcurve" smooth="yes"/>
			<point x="117.9829329525" y="-10"/>
			<point x="-42.4470597233" y="177"/>
		</contour>
		<contour>
			<point x="140.1823958431" y="335" type="qcurve" smooth="yes"/>
			<point x="128.9411238705" y="246.9982910156"/>
			<point x="217.1559065853" y="104.1968383789"/>
			<point x="356.8475569759" y="104.1968383789" type="qcurve" smooth="yes"/>
			<point x="433.031577972" y="104.1968383789"/>
			<point x="699.9226302181" y="189.6655273438"/>
			<point x="746.0939559017" y="409.5313110352" type="qcurve" smooth="yes"/>
			<point x="825.4105452572" y="775.7494506836" type="line"/>
			<point x="801.8106307064" y="801.7498779297"/>
			<point x="688.2215804134" y="876.3502197266"/>
			<point x="596.0856551205" y="876.3502197266" type="qcurve" smooth="yes"/>
			<point x="419.5464705502" y="876.3502197266"/>
			<point x="155.4236678158" y="542.6002807617"/>
		</contour>
	</outline>
	<anchor name="bottom" x="324" y="-416"/>
	<anchor name="top" x="603" y="1000"/>
</glyph>
<glyph name="h" format="2">
	<unicode hex="0068"/>
	<advance width="1131"/>
	<outline>
		<contour>
			<point x="41.4671020508" y="-14.3077392578" type="line"/>
			<point x="23.8132324219" y="38" type="line"/>
			<point x="147.5828857422" y="599" type="line"/>
			<point x="310.9510498047" y="1432.8161621094" type="line"/>
			<point x="124.5535888672" y="1406.8161621094" type="line"/>
			<point x="152.7357177734" y="1480.9987792969" type="line"/>
			<point x="425.1591186523" y="1550.9987792969" type="line"/>
			<point x="487.7764282227" y="1502.1511230469" type="line"/>
			<point x="304.6249389648" y="598" type="line"/>
			<point x="212.2020263672" y="87.6160888672" type="line"/>
			<point x="230.0094604492" y="18.0773925781" type="line"/>
		</contour>
		<contour>
			<point x="713.0440063477" y="-6" type="line"/>
			<point x="678.0440063477" y="82" type="line"/>
			<point x="824.9597167969" y="701.2791137695" type="line" smooth="yes"/>
			<point x="851.0983276367" y="817.3063354492"/>
			<point x="800.2905883789" y="879.6829833984"/>
			<point x="714.1206054688" y="879.6829833984" type="qcurve" smooth="yes"/>
			<point x="604.7889404297" y="879.6829833984"/>
			<point x="306.5861816406" y="712.6514282227"/>
			<point x="226.8633422852" y="601.1949462891" type="qcurve"/>
			<point x="247.3134765625" y="741.6375732422" type="line"/>
			<point x="282.4320678711" y="814.7381591797"/>
			<point x="626.4183349609" y="1021.0557861328"/>
			<point x="791.4335327148" y="1021.0557861328" type="qcurve" smooth="yes"/>
			<point x="877.6831054688" y="1021.0557861328"/>
			<point x="1023.9259033203" y="867.7017211914"/>
			<point x="994.9326782227" y="742.8448486328" type="qcurve" smooth="yes"/>
			<point x="846.8064575195" y="136.0009765625" type="line"/>
			<point x="999.430847168" y="165.0009765625" type="line"/>
			<point x="999.430847168" y="76" type="line"/>
		</contour>
	</outline>
	<anchor name="bottom" x="420" y="0"/>
	<anchor name="center" x="347" y="1202"/>
	<anchor name="top" x="424" y="1534"/>
</glyph>
<glyph name="k" format="2">
	<unicode hex="006B"/>
	<advance width="921"/>
	<outline>
		<contour>
			<point x="474.9739990234" y="520.5942993164" type="line"/>
			<point x="123.5486450195" y="148.4246826172" type="line"/>
			<point x="135.4943847656" y="258.1462402344" type="line"/>
			<point x="722.2911376953" y="832.3380126953" type="line"/>
			<point x="732.9185180664" y="851.253112793"/>
			<point x="709.6525268555" y="900.8233642578"/>
			<point x="684.1041259766" y="900.8233642578" type="qcurve" smooth="yes"/>
			<point x="578.7614746094" y="900.8233642578"/>
			<point x="338.2615356445" y="649.9595336914"/>
			<point x="272.2591552734" y="525.224609375" type="qcurve"/>
			<point x="279.5432128906" y="579.306640625" type="line"/>
			<point x="201.6639404297" y="89.9622192383" type="line"/>
			<point x="225.4713745117" y="22.0006103516" type="line"/>
			<point x="36.5828857422" y="-12" type="line"/>
			<point x="19.5828857422" y="37" type="line"/>
			<point x="108.5828857422" y="478" type="line"/>
			<point x="291.0874023438" y="1423.9647216797" type="line"/>
			<point x="89.8599853516" y="1407.46484375" type="line"/>
			<point x="118.0421142578" y="1481.6474609375" type="line"/>
			<point x="406.1975097656" y="1551.6474609375" type="line"/>
			<point x="468.8148193359" y="1501.4920654297" type="line"/>
			<point x="304.6422119141" y="690.4751586914" type="line"/>
			<point x="377.0949707031" y="787.4558105469"/>
			<point x="613.9694213867" y="1022.4211425781"/>
			<point x="725.1806030273" y="1022.4211425781" type="qcurve" smooth="yes"/>
			<point x="766.3820800781" y="1022.4211425781"/>
			<point x="852.1870727539" y="964.7458496094"/>
			<point x="844.3294067383" y="925.5764770508" type="qcurve" smooth="yes"/>
			<point x="851.2409057617" y="791.4943847656" type="line"/>
			<point x="844.6820068359" y="782.9609375" type="line"/>
			<point x="495.4024047852" y="540.5697021484" type="line"/>
		</contour>
		<contour>
			<point x="550.4421386719" y="632.8209838867" type="line"/>
			<point x="759.8662109375" y="168.1557617188" type="line"/>
			<point x="947.8095703125" y="193.1557617188" type="line"/>
			<point x="948.8095703125" y="106.1547851562" type="line"/>
			<point x="721.0699462891" y="2" type="line" smooth="yes"/>
			<point x="686.7523803711" y="-17.5114135742"/>
			<point x="657.0423583984" y="18.6154785156"/>
			<point x="634.9107055664" y="60" type="qcurve" smooth="yes"/>
			<point x="429.3344116211" y="530.9885253906" type="line"/>
		</contour>
	</outline>
	<anchor name="bottom" x="448" y="0"/>
	<anchor name="top" x="578" y="1534"/>
</glyph>
<glyph name="m" format="2">
	<unicode hex="006D"/>
	<advance width="1638"/>
	<outline>
		<contour>
			<point x="46.8481445312" y="-28.0006103516" type="line"/>
			<point x="38.3094482422" y="28.076171875" type="line"/>
			<point x="136.5404052734" y="490" type="line"/>
			<point x="195.8765258789" y="860.8090209961" type="line"/>
			<point x="70.2521362305" y="862.8090209961" type="line"/>
			<point x="71.9794311523" y="961.582824707" type="line"/>
			<point x="273.3638305664" y="1000.582824707" type="line"/>
			<point x="322.2492675781" y="986.582824707" type="line"/>
			<point x="338.9481811523" y="716.2163696289" type="line"/>
			<point x="320.8518066406" y="614" type="line"/>
			<point x="216.8518066406" y="81" type="line"/>
			<point x="222.8518066406" y="8" type="line"/>
		</contour>
		<contour>
			<point x="617.2847290039" y="-10.3461303711" type="line"/>
			<point x="608.2847290039" y="52.6538696289" type="line"/>
			<point x="755.1199951172" y="695.6406860352" type="line" smooth="yes"/>
			<point x="770.151550293" y="761.4044799805"/>
			<point x="749.7970581055" y="896.0533447266"/>
			<point x="672.9312133789" y="896.0533447266" type="qcurve" smooth="yes"/>
			<point x="615.2813110352" y="896.0533447266"/>
			<point x="365.7058105469" y="755.162902832"/>
			<point x="262.0676269531" y="666.2500610352" type="qcurve"/>
			<point x="278.6002197266" y="792.2466430664" type="line"/>
			<point x="342.8661499023" y="876.068359375"/>
			<point x="662.1002197266" y="1024.5833740234"/>
			<point x="744.1724853516" y="1024.5833740234" type="qcurve" smooth="yes"/>
			<point x="849.5547485352" y="1024.5833740234"/>
			<point x="959.2293701172" y="872.0697021484"/>
			<point x="928.8363037109" y="776.2372436523" type="qcurve" smooth="yes"/>
			<point x="778.2116088867" y="115.3089599609" type="line"/>
			<point x="806.2890014648" y="27.6160888672" type="line"/>
		</contour>
		<contour>
			<point x="1253.6273803711" y="-14.5003051758" type="line"/>
			<point x="1194.4342041016" y="127.7708740234" type="line"/>
			<point x="1338.6923828125" y="717.2183837891" type="line" smooth="yes"/>
			<point x="1349.3255615234" y="762.298034668"/>
			<point x="1316.44140625" y="896.0533447266"/>
			<point x="1227.4891357422" y="896.0533447266" type="qcurve" smooth="yes"/>
			<point x="1154.6334228516" y="896.0533447266"/>
			<point x="940.4584350586" y="771.8947143555"/>
			<point x="837.8500366211" y="669.4633789062" type="qcurve"/>
			<point x="845.9134521484" y="802.1802978516" type="line"/>
			<point x="912.7249145508" y="881.0305175781"/>
			<point x="1190.3365478516" y="1024.5833740234"/>
			<point x="1303.8029785156" y="1024.5833740234" type="qcurve" smooth="yes"/>
			<point x="1407.5404052734" y="1024.5833740234"/>
			<point x="1535.834777832" y="868.4452514648"/>
			<point x="1508.4854736328" y="775.5833740234" type="qcurve" smooth="yes"/>
			<point x="1354.0424804688" y="136.0009765625" type="line"/>
			<point x="1506.6668701172" y="165.0009765625" type="line"/>
			<point x="1506.6668701172" y="76" type="line"/>
		</contour>
	</outline>
	<anchor name="bottom" x="958" y="0"/>
	<anchor name="top" x="958" y="1000"/>
	<anchor name="cy_descender" x="1572" y="134"/>
</glyph>
<glyph name="n" format="2">
	<unicode hex="006E"/>
	<advance width="1110"/>
	<outline>
		<contour>
			<point x="42.5855712891" y="-11" type="line"/>
			<point x="37.5855712891" y="45.8322753906" type="line"/>
			<point x="131.0017089844" y="490" type="line"/>
			<point x="195.8765258789" y="860.2819824219" type="line"/>
			<point x="70.2521362305" y="862.2819824219" type="line"/>
			<point x="71.9794311523" y="961.0557861328" type="line"/>
			<point x="260.9403076172" y="998.4719238281" type="line"/>
			<point x="315.7105712891" y="984.4719238281" type="line"/>
			<point x="332.2894897461" y="726.0557861328" type="line"/>
			<point x="323.2894897461" y="674.0557861328" type="line"/>
			<point x="214.5892333984" y="75.4564819336" type="line"/>
			<point x="212.2537841797" y="7.2080688477" type="line"/>
		</contour>
		<contour>
			<point x="707.0576782227" y="-4.2577514648" type="line"/>
			<point x="679.3931274414" y="82" type="line"/>
			<point x="825.1987915039" y="712.9255371094" type="line" smooth="yes"/>
			<point x="842.9993896484" y="791.3450927734"/>
			<point x="794.2699584961" y="883.3155517578"/>
			<point x="707.3531494141" y="883.3155517578" type="qcurve" smooth="yes"/>
			<point x="582.4716796875" y="883.3155517578"/>
			<point x="312.3309936523" y="699.3226928711"/>
			<point x="245.5940551758" y="588.2258300781" type="qcurve"/>
			<point x="256.5969848633" y="716.3428344727" type="line"/>
			<point x="289.0056152344" y="811.0389404297"/>
			<point x="633.4782104492" y="1024.0563354492"/>
			<point x="777.8048095703" y="1024.0563354492" type="qcurve" smooth="yes"/>
			<point x="908.4138183594" y="1024.0563354492"/>
			<point x="1021.8540649414" y="862.7192382812"/>
			<point x="1003.162109375" y="793.5875244141" type="qcurve" smooth="yes"/>
			<point x="846.2255859375" y="136.0009765625" type="line"/>
			<point x="996.8883666992" y="165.0009765625" type="line"/>
			<point x="996.8883666992" y="76" type="line"/>
		</contour>
	</outline>
	<anchor name="bottom" x="522" y="0"/>
	<anchor name="top" x="602" y="1000"/>
	<anchor name="liga" x="1173" y="0"/>
</glyph>
<glyph name="o" format="2">
	<unicode hex="006F"/>
	<advance width="961"/>
	<outline>
		<contour>
			<point x="15.7658462971" y="560.0008544922" type="qcurve" smooth="yes"/>
			<point x="72.4194507005" y="793.3041381836"/>
			<point x="455.1280688646" y="1057.4307250977"/>
			<point x="646.6664599778" y="1012.4307250977" type="qcurve" smooth="yes"/>
			<point x="815.2333545091" y="972.6624145508"/>
			<point x="967.5131396653" y="658.8120117188"/>
			<point x="916.9643936603" y="462.0008544922" type="qcurve" smooth="yes"/>
			<point x="852.5156421067" y="208.1705322266"/>
			<point x="471.2675952317" y="-42.4290161133"/>
			<point x="304.9962939622" y="-8.4290161133" type="qcurve" smooth="yes"/>
			<point x="129.2830371263" y="26.3392944336"/>
			<point x="-41.0290356276" y="329.1896972656"/>
		</contour>
		<contour>
			<point x="189.5977554767" y="568.3340454102" type="qcurve" smooth="yes"/>
			<point x="146.2390752751" y="389.5888107103"/>
			<point x="212.2776871174" y="129.8485107422"/>
			<point x="327.5325088947" y="95.9016113281" type="qcurve" smooth="yes"/>
			<point x="440.7359390705" y="63.9016113281"/>
			<point x="704.1028590195" y="321.7795530452"/>
			<point x="743.5964127033" y="480.0927734375" type="qcurve" smooth="yes"/>
			<point x="782.2771841227" y="624.5773614504"/>
			<point x="715.950599715" y="882.9002685547"/>
			<point x="616.4906387775" y="906.9002685547" type="qcurve" smooth="yes"/>
			<point x="477.6974869221" y="938.9002685547"/>
			<point x="219.8953340458" y="692.5854417279"/>
		</contour>
	</outline>
	<anchor name="bottom" x="358" y="0"/>
	<anchor name="center" x="461" y="500"/>
	<anchor name="ogonek" x="514" y="0"/>
	<anchor name="top" x="584" y="1000"/>
	<anchor name="topright" x="663" y="1000"/>
	<anchor name="GRKtop" x="584" y="1000"/>
	<anchor name="yu_dash" x="83" y="498"/>
</glyph>
<glyph name="p" format="2">
	<unicode hex="0070"/>
	<advance width="922"/>
	<outline>
		<contour>
			<point x="-54.2012939453" y="-392.5" type="line"/>
			<point x="135.7219238281" y="511" type="line"/>
			<point x="185.4506225586" y="837.7280273438" type="line"/>
			<point x="169.1428833008" y="932.5354614258" type="line"/>
			<point x="291.7608032227" y="999.1905517578" type="line"/>
			<point x="356.8771972656" y="999.1905517578" type="line"/>
			<point x="334" y="816.7984008789" type="line"/>
			<point x="358.0246582031" y="864.7254638672"/>
			<point x="616.444519043" y="1013.1911010742"/>
			<point x="745.653503418" y="1013.1911010742" type="qcurve" smooth="yes"/>
			<point x="852.849609375" y="1013.1911010742"/>
			<point x="907.5877075195" y="864.0145874023"/>
			<point x="907.1051635742" y="776.339050293" type="qcurve" smooth="yes"/>
			<point x="906.6226196289" y="455.5682373047"/>
			<point x="603.9250488281" y="34"/>
			<point x="376.8640136719" y="34" type="qcurve" smooth="yes"/>
			<point x="307.1719970703" y="34"/>
			<point x="211.6165161133" y="51"/>
			<point x="189.9943237305" y="66" type="qcurve"/>
			<point x="108.6412963867" y="-336.9619750977" type="line"/>
			<point x="294.1751098633" y="-339.2802124023" type="line"/>
			<point x="271.992980957" y="-416.4628295898" type="line"/>
			<point x="11.7621459961" y="-460.0015258789" type="line"/>
		</contour>
		<contour>
			<point x="220.1418457031" y="236.3806762695" type="line"/>
			<point x="216.2901000977" y="201.9077148438"/>
			<point x="342.3291015625" y="171.9077148438"/>
			<point x="408.2655029297" y="171.9077148438" type="qcurve" smooth="yes"/>
			<point x="565.6713256836" y="171.9077148438"/>
			<point x="741.6573486328" y="488.8386230469"/>
			<point x="742.1398925781" y="732.339050293" type="qcurve" smooth="yes"/>
			<point x="742.6224365234" y="835.9742431641"/>
			<point x="680.6466674805" y="866.3532104492"/>
			<point x="635.2211914062" y="866.3532104492" type="qcurve" smooth="yes"/>
			<point x="511.4831542969" y="866.3532104492"/>
			<point x="371.7068481445" y="782.4227294922"/>
			<point x="308.4184570312" y="679.6087646484" type="qcurve"/>
			<point x="281.9943237305" y="521" type="line"/>
		</contour>
	</outline>
	<anchor name="bottom" x="599" y="0"/>
	<anchor name="top" x="599" y="1000"/>
</glyph>
<glyph name="q" format="2">
	<unicode hex="0071"/>
	<advance width="991"/>
	<outline>
		<contour>
			<point x="-19.2030029297" y="291" type="qcurve" smooth="yes"/>
			<point x="-16.2030029297" y="576.1493530273"/>
			<point x="353.9173583984" y="1011.5150146484"/>
			<point x="576.2264404297" y="1011.5150146484" type="qcurve" smooth="yes"/>
			<point x="653.8517456055" y="1011.5150146484"/>
			<point x="741.9309082031" y="971.5150146484"/>
			<point x="755.2769165039" y="958.5150146484" type="qcurve"/>
			<point x="816.8614501953" y="989.5150146484" type="line"/>
			<point x="842.5159301758" y="989.5150146484" type="line"/>
			<point x="886.7097167969" y="815.6271362305" type="line"/>
			<point x="791.4959716797" y="358" type="line"/>
			<point x="656.0416259766" y="-285.8627929688" type="line"/>
			<point x="802.9844970703" y="-305.3173828125" type="line"/>
			<point x="778.8023681641" y="-380.5" type="line"/>
			<point x="561.1870117188" y="-412.8851318359" type="line"/>
			<point x="491.4158325195" y="-346.383605957" type="line"/>
			<point x="616.6080932617" y="221" type="line"/>
			<point x="608.6080932617" y="223" type="line"/>
			<point x="532.8392944336" y="117"/>
			<point x="353.7913208008" y="10"/>
			<point x="241.1840209961" y="10" type="qcurve" smooth="yes"/>
			<point x="107.8033447266" y="10"/>
			<point x="-20.2030029297" y="162"/>
		</contour>
		<contour>
			<point x="145.4545288086" y="287" type="qcurve" smooth="yes"/>
			<point x="142.4545288086" y="215.9987182617"/>
			<point x="220.1369628906" y="119.4635620117"/>
			<point x="308.885925293" y="119.4635620117" type="qcurve" smooth="yes"/>
			<point x="417.3491210938" y="119.4635620117"/>
			<point x="632.8243408203" y="263.3319091797"/>
			<point x="652.3771362305" y="414" type="qcurve" smooth="yes"/>
			<point x="732.7537841797" y="817.3186035156" type="line"/>
			<point x="723.9950561523" y="844.3186035156"/>
			<point x="631.2619018555" y="888.3186035156"/>
			<point x="565.2525634766" y="888.3186035156" type="qcurve" smooth="yes"/>
			<point x="390.0269775391" y="888.3186035156"/>
			<point x="153.4545288086" y="506.2175292969"/>
		</contour>
	</outline>
	<anchor name="bottom" x="594" y="0"/>
	<anchor name="top" x="594" y="1000"/>
</glyph>
<glyph name="r" format="2">
	<unicode hex="0072"/>
	<advance width="774"/>
	<outline>
		<contour>
			<point x="74.3039550781" y="-6" type="line"/>
			<point x="39.3039550781" y="82" type="line"/>
			<point x="155.7274780273" y="546" type="line"/>
			<point x="197.1787719727" y="858.9453735352" type="line"/>
			<point x="71.5543823242" y="862.8090209961" type="line"/>
			<point x="73.2816772461" y="961.582824707" type="line"/>
			<point x="310.2827758789" y="998.582824707" type="line"/>
			<point x="334.2827758789" y="986.582824707" type="line"/>
			<point x="317.0762939453" y="826.4477539062" type="line"/>
			<point x="339.1304321289" y="711.582824707" type="line"/>
			<point x="218.5283203125" y="132.5463867188" type="line"/>
			<point x="331.1527099609" y="145.0009765625" type="line"/>
			<point x="331.1527099609" y="56" type="line"/>
		</contour>
		<contour>
			<point x="673.2993164062" y="802.582824707" type="line"/>
			<point x="681.8708496094" y="893.7870483398" type="line"/>
			<point x="541.4163208008" y="893.7870483398"/>
			<point x="354.9513549805" y="854.8486938477"/>
			<point x="267.4091796875" y="685.3734741211" type="qcurve"/>
			<point x="279.5895385742" y="803.1206054688" type="line"/>
			<point x="239.6304321289" y="791.99609375"/>
			<point x="531.8843994141" y="1023.5833740234"/>
			<point x="689.0701904297" y="1023.5833740234" type="qcurve" smooth="yes"/>
			<point x="752.9279174805" y="1023.5833740234"/>
			<point x="804.9488525391" y="987.5449829102"/>
			<point x="804.9488525391" y="952.5833740234" type="qcurve" smooth="yes"/>
			<point x="804.9488525391" y="896.5833740234"/>
			<point x="736.0689697266" y="802.582824707"/>
			<point x="690.2993164062" y="802.582824707" type="qcurve" smooth="yes"/>
		</contour>
	</outline>
	<anchor name="bottom" x="282" y="0"/>
	<anchor name="top" x="486" y="1000"/>
</glyph>
<glyph name="s" format="2">
	<unicode hex="0073"/>
	<advance width="804"/>
	<outline>
		<contour>
			<point x="-23.8363647461" y="142" type="qcurve" smooth="yes"/>
			<point x="-23.8363647461" y="207"/>
			<point x="71.7425537109" y="242"/>
			<point x="130.3592529297" y="242" type="qcurve" smooth="yes"/>
			<point x="153.4366455078" y="242" type="line"/>
			<point x="153.4366455078" y="155" type="line" smooth="yes"/>
			<point x="153.4366455078" y="125.5317382812"/>
			<point x="235.0714111328" y="93.7203979492"/>
			<point x="313.1405029297" y="93.7203979492" type="qcurve" smooth="yes"/>
			<point x="413.7857666016" y="93.7203979492"/>
			<point x="537.5078735352" y="224.7732543945"/>
			<point x="537.5078735352" y="267.4036254883" type="qcurve" smooth="yes"/>
			<point x="537.5078735352" y="305.9240722656"/>
			<point x="469.9412231445" y="386.8128051758"/>
			<point x="341.4633789062" y="465.6392822266" type="qcurve" smooth="yes"/>
			<point x="206.1623535156" y="559.486328125"/>
			<point x="130.6000976562" y="686.242980957"/>
			<point x="132.2539672852" y="767.532043457" type="qcurve" smooth="yes"/>
			<point x="133.9078369141" y="869.6412353516"/>
			<point x="309.9108276367" y="1025.6276855469"/>
			<point x="469.1350708008" y="1025.6276855469" type="qcurve" smooth="yes"/>
			<point x="596.4247436523" y="1025.6276855469"/>
			<point x="730.862487793" y="940.0557861328"/>
			<point x="730.862487793" y="879.0557861328" type="qcurve" smooth="yes"/>
			<point x="730.862487793" y="840.0557861328"/>
			<point x="672.3999633789" y="807.0557861328"/>
			<point x="613.0142211914" y="807.0557861328" type="qcurve" smooth="yes"/>
			<point x="577.9752197266" y="807.0557861328" type="line"/>
			<point x="559.0130004883" y="925.7870483398" type="line" smooth="yes"/>
			<point x="559.0130004883" y="887.9598999023"/>
			<point x="485.0164794922" y="920.3639526367"/>
			<point x="422.8087768555" y="920.3639526367" type="qcurve" smooth="yes"/>
			<point x="335.3743286133" y="920.3639526367"/>
			<point x="270.55078125" y="824.2380371094"/>
			<point x="270.55078125" y="780.3590698242" type="qcurve" smooth="yes"/>
			<point x="270.55078125" y="761.6893310547"/>
			<point x="338.8674316406" y="688.6332397461"/>
			<point x="434.2333984375" y="616.7517700195" type="qcurve" smooth="yes"/>
			<point x="548.0748901367" y="537.9405517578"/>
			<point x="673.0466918945" y="402.6327514648"/>
			<point x="673.0466918945" y="310.4463500977" type="qcurve"/>
			<point x="675.6125488281" y="171.1250610352"/>
			<point x="466.3385009766" y="-18.1432495117"/>
			<point x="245.1372680664" y="-18.1432495117" type="qcurve" smooth="yes"/>
			<point x="126.0850830078" y="-18.1432495117"/>
			<point x="-23.8363647461" y="74"/>
		</contour>
	</outline>
	<anchor name="bottom" x="282" y="0"/>
	<anchor name="top" x="446" y="1000"/>
</glyph>
<glyph name="t" format="2">
	<unicode hex="0074"/>
	<advance width="448"/>
	<outline>
		<contour>
			<point x="78.146484375" y="-13" type="line"/>
			<point x="3.1830444336" y="38" type="line"/>
			<point x="101.1830444336" y="503" type="line"/>
			<point x="170.7019042969" y="903.6254272461" type="line"/>
			<point x="42.9583129883" y="901.8563842773" type="line"/>
			<point x="41.3579711914" y="969.9880371094" type="line"/>
			<point x="155.2552490234" y="967.6796875"/>
			<point x="286.7150878906" y="1284.0344238281"/>
			<point x="290.4722900391" y="1294.0557861328" type="qcurve"/>
			<point x="371.5079956055" y="1294.0557861328" type="line"/>
			<point x="398.2008666992" y="1268.7858276367" type="line"/>
			<point x="248.3786621094" y="486" type="line"/>
			<point x="193.8376464844" y="128.2281494141" type="line"/>
			<point x="347.8118896484" y="170.2281494141" type="line"/>
			<point x="347.8118896484" y="89" type="line"/>
		</contour>
		<contour>
			<point x="262.619934082" y="923.3894042969" type="line"/>
			<point x="292.352355957" y="1004.4541625977" type="line"/>
			<point x="562.086730957" y="1031.4533081055" type="line"/>
			<point x="561.3534545898" y="934.3894042969" type="line"/>
		</contour>
	</outline>
	<anchor name="bottom" x="149" y="0"/>
	<anchor name="center" x="262" y="622"/>
	<anchor name="top" x="322" y="1179"/>
	<anchor name="topright" x="600" y="920"/>
</glyph>
<glyph name="u" format="2">
	<unicode hex="0075"/>
	<advance width="1053"/>
	<outline>
		<contour>
			<point x="730.9221801758" y="-6" type="line"/>
			<point x="672.3828735352" y="136.9250488281" type="line"/>
			<point x="694.3834228516" y="352.3314819336" type="line"/>
			<point x="800.5889892578" y="904.4937744141" type="line"/>
			<point x="798.28125" y="971.0708618164" type="line"/>
			<point x="958.9771728516" y="1000.1098632812" type="line"/>
			<point x="984.4774780273" y="980.1098632812" type="line"/>
			<point x="817.5437011719" y="197" type="line"/>
			<point x="814.8298339844" y="135.1373291016" type="line"/>
			<point x="971.7724609375" y="164.1373291016" type="line"/>
			<point x="973.4997558594" y="76" type="line"/>
		</contour>
		<contour>
			<point x="75.2892456055" y="313" type="qcurve" smooth="yes"/>
			<point x="178.3182373047" y="863.1997070312" type="line"/>
			<point x="52.6938476562" y="865.1997070312" type="line"/>
			<point x="54.4211425781" y="963.1098632812" type="line"/>
			<point x="244.8055419922" y="1000.1098632812" type="line"/>
			<point x="300.3064575195" y="1000.1098632812" type="line"/>
			<point x="344.7689819336" y="928.4541625977" type="line"/>
			<point x="220.5466918945" y="252.9995727539" type="line" smooth="yes"/>
			<point x="204.9527587891" y="178.46484375"/>
			<point x="312.0061035156" y="118.7298583984"/>
			<point x="405.6254882812" y="118.7298583984" type="qcurve" smooth="yes"/>
			<point x="521.0045776367" y="118.7298583984"/>
			<point x="700.4432373047" y="307.2032470703"/>
			<point x="799.8369750977" y="486.4186401367" type="qcurve"/>
			<point x="786.6121826172" y="349.760925293" type="line"/>
			<point x="696.6173706055" y="175.6432495117"/>
			<point x="446.5673217773" y="-7"/>
			<point x="304.8479614258" y="-7" type="qcurve" smooth="yes"/>
			<point x="162.2579345703" y="-7"/>
			<point x="42.5153808594" y="140.5248413086"/>
		</contour>
	</outline>
	<anchor name="bottom" x="404" y="0"/>
	<anchor name="ogonek" x="871" y="20"/>
	<anchor name="top" x="572" y="1000"/>
	<anchor name="topright" x="915" y="1000"/>
	<anchor name="cy_descender" x="1018" y="134"/>
</glyph>
<glyph name="v" format="2">
	<unicode hex="0076"/>
	<advance width="902"/>
	<outline>
		<contour>
			<point x="230.1530151367" y="8.8569335938" type="line"/>
			<point x="184.3708496094" y="493.4110107422" type="line"/>
			<point x="163.0759887695" y="844.75" type="line"/>
			<point x="16.481262207" y="850.2045898438" type="line"/>
			<point x="18.2085571289" y="948.9783935547" type="line"/>
			<point x="246.5983886719" y="999.0557861328" type="line"/>
			<point x="310.8305664062" y="999.0557861328" type="line"/>
			<point x="328.1474609375" y="547.3289794922" type="line"/>
			<point x="352.2651367188" y="243.0641479492" type="line"/>
			<point x="350.193359375" y="172.5319824219" type="line"/>
			<point x="353.9661865234" y="172.5319824219" type="line"/>
			<point x="417.6598510742" y="251.9499511719" type="line"/>
			<point x="611.3344116211" y="483.9680175781"/>
			<point x="712.1748657227" y="647.9999389648"/>
			<point x="712.1748657227" y="721.0780029297" type="qcurve" smooth="yes"/>
			<point x="712.1748657227" y="808.2012329102"/>
			<point x="643.1393432617" y="932.0462036133"/>
			<point x="596.1393432617" y="966.5004882812" type="qcurve" smooth="yes"/>
			<point x="618.1393432617" y="990.0563354492"/>
			<point x="693.4304199219" y="1035.7211914062"/>
			<point x="727.3494873047" y="1035.7211914062" type="qcurve" smooth="yes"/>
			<point x="767.3630371094" y="1035.7211914062"/>
			<point x="857.6977539062" y="948.5091552734"/>
			<point x="857.6977539062" y="861.4463500977" type="qcurve" smooth="yes"/>
			<point x="857.6977539062" y="755.1428833008"/>
			<point x="558.2506713867" y="274.7413330078"/>
			<point x="315.0764770508" y="-9.1430664062" type="qcurve"/>
		</contour>
	</outline>
	<anchor name="bottom" x="513" y="0"/>
	<anchor name="top" x="513" y="1000"/>
</glyph>
<glyph name="w" format="2">
	<unicode hex="0077"/>
	<advance width="1309"/>
	<outline>
		<contour>
			<point x="202.7713623047" y="10" type="line"/>
			<point x="127.8553466797" y="566.901550293" type="line"/>
			<point x="92.2523803711" y="861.2819824219" type="line"/>
			<point x="-53.1450805664" y="863.2819824219" type="line"/>
			<point x="-51.4177856445" y="962.0557861328" type="line"/>
			<point x="171.9069213867" y="999.0557861328" type="line"/>
			<point x="249.7210083008" y="999.0557861328" type="line"/>
			<point x="274.5887451172" y="611.7041625977" type="line"/>
			<point x="318.6754150391" y="195.6768188477" type="line"/>
			<point x="311.4210205078" y="138.1848144531" type="line"/>
			<point x="312.4210205078" y="138.1848144531" type="line"/>
			<point x="329.8672485352" y="198.8764038086" type="line"/>
			<point x="428.793762207" y="355.8037719727"/>
			<point x="542.9531860352" y="608.0711669922"/>
			<point x="559.6084594727" y="712.1848144531" type="qcurve"/>
			<point x="544.1771240234" y="860.1410522461" type="line"/>
			<point x="439.7803955078" y="861.7341918945" type="line"/>
			<point x="440.916015625" y="961.778503418" type="line"/>
			<point x="626.4028320312" y="998.778503418" type="line"/>
			<point x="698.8286132812" y="998.778503418" type="line"/>
			<point x="727.4009399414" y="584.6604614258" type="line"/>
			<point x="766.3549194336" y="198.1724243164" type="line"/>
			<point x="766.4653320312" y="144.0552368164" type="line"/>
			<point x="767.4653320312" y="144.0552368164" type="line"/>
			<point x="818.8986206055" y="201.6910400391" type="line"/>
			<point x="997.448425293" y="413.5871582031"/>
			<point x="1129.9342651367" y="767.5005493164"/>
			<point x="1116.8568725586" y="864.0961303711" type="qcurve" smooth="yes"/>
			<point x="1103.7794799805" y="905.7854003906"/>
			<point x="985.7764282227" y="907.2849121094"/>
			<point x="936.4686889648" y="933.7462158203" type="qcurve" smooth="yes"/>
			<point x="955.160949707" y="961.092956543"/>
			<point x="1041.7776489258" y="1009.0557861328"/>
			<point x="1089.5479125977" y="1009.0557861328" type="qcurve" smooth="yes"/>
			<point x="1148.2030029297" y="943.6263427734"/>
			<point x="1245.3206176758" y="947.4396972656"/>
			<point x="1245.3206176758" y="897.2081298828" type="qcurve" smooth="yes"/>
			<point x="1246.3206176758" y="852.3527832031"/>
			<point x="1029.3679199219" y="265.8326416016"/>
			<point x="763.8587646484" y="-8" type="qcurve"/>
			<point x="636.4844360352" y="10" type="line"/>
			<point x="577.7445068359" y="499.0095214844" type="line"/>
			<point x="584.5713500977" y="537.553894043" type="line"/>
			<point x="583.5713500977" y="537.553894043" type="line"/>
			<point x="597.0089111328" y="485.6406860352" type="line"/>
			<point x="580.8145751953" y="393.8256835938"/>
			<point x="452.1557617188" y="152.8150024414"/>
			<point x="328.9614257812" y="-8" type="qcurve"/>
		</contour>
	</outline>
	<anchor name="bottom" x="787" y="0"/>
	<anchor name="top" x="717" y="1000"/>
</glyph>
<glyph name="x" format="2">
	<unicode hex="0078"/>
	<advance width="906"/>
	<outline>
		<contour>
			<point x="187.7489624023" y="-1.7145996094" type="qcurve"/>
			<point x="78.049621582" y="35.2854003906" type="line"/>
			<point x="89.2770385742" y="130.3319091797" type="line"/>
			<point x="150.5680541992" y="130.3319091797" type="line" smooth="yes"/>
			<point x="216.8225708008" y="129.9117431641"/>
			<point x="252.4049072266" y="166.4900512695"/>
			<point x="245.2330932617" y="164.2653808594" type="qcurve" smooth="yes"/>
			<point x="282.5487060547" y="211.8282470703"/>
			<point x="422.5006713867" y="462.7323608398"/>
			<point x="440.2097167969" y="510.788269043" type="qcurve"/>
			<point x="336.3734741211" y="864.7365722656" type="line"/>
			<point x="163.2484741211" y="863.2819824219" type="line"/>
			<point x="164.975769043" y="962.0557861328" type="line"/>
			<point x="395.2462158203" y="999.0557861328" type="line"/>
			<point x="467.7477416992" y="979.0557861328" type="line"/>
			<point x="516.1665039062" y="760.9904785156" type="line"/>
			<point x="521.4105224609" y="693.6759033203" type="line"/>
			<point x="522.4105224609" y="693.6759033203" type="line"/>
			<point x="550.7369384766" y="759.2838745117" type="line" smooth="yes"/>
			<point x="614.0266723633" y="876.9711914062"/>
			<point x="608.1517944336" y="906.5754394531"/>
			<point x="622.2108154297" y="927.2043457031" type="qcurve" smooth="yes"/>
			<point x="645.5291137695" y="963.8547973633"/>
			<point x="752.3373413086" y="1017.3415527344"/>
			<point x="795.557800293" y="1017.3415527344" type="qcurve" smooth="yes"/>
			<point x="832.1929931641" y="1017.3415527344"/>
			<point x="858.09765625" y="956.3415527344"/>
			<point x="858.09765625" y="922.3415527344" type="qcurve" smooth="yes"/>
			<point x="858.09765625" y="885.3415527344"/>
			<point x="821.6522216797" y="823.3415527344"/>
			<point x="798.6522216797" y="817.3415527344" type="qcurve"/>
			<point x="781.6522216797" y="828.3415527344" type="line"/>
			<point x="779.6416625977" y="870.0510253906" type="line" smooth="yes"/>
			<point x="775.8978271484" y="872.3432617188"/>
			<point x="767.4271850586" y="898.5435180664"/>
			<point x="767.7828369141" y="898.5435180664" type="qcurve" smooth="yes"/>
			<point x="754.26953125" y="898.5435180664"/>
			<point x="684.0712280273" y="828.1502075195"/>
			<point x="645.4307250977" y="772.3778076172" type="qcurve" smooth="yes"/>
			<point x="604.8355712891" y="715.7946777344"/>
			<point x="593.5889892578" y="659.2486572266"/>
			<point x="559.3040161133" y="572.3939819336" type="qcurve"/>
			<point x="703.001159668" y="120.4292602539" type="line"/>
			<point x="899.6715698242" y="149.4292602539" type="line"/>
			<point x="899.6715698242" y="60.4282836914" type="line"/>
			<point x="630.6038818359" y="-18.5216064453" type="line"/>
			<point x="570.9871826172" y="13.4783935547" type="line"/>
			<point x="482.7208251953" y="315.3302612305" type="line"/>
			<point x="470.981628418" y="385.9368896484" type="line"/>
			<point x="469.981628418" y="385.9368896484" type="line"/>
			<point x="440.3779296875" y="316.4105224609" type="line"/>
			<point x="447.501159668" y="304.6060791016"/>
			<point x="427.7842407227" y="209.2337036133"/>
			<point x="390.1248779297" y="144.7482910156" type="qcurve" smooth="yes"/>
			<point x="346.8633422852" y="75.0986938477"/>
			<point x="249.1481933594" y="-19.9140014648"/>
		</contour>
	</outline>
	<anchor name="bottom" x="522" y="0"/>
	<anchor name="top" x="522" y="1000"/>
	<anchor name="cy_descender" x="832" y="134"/>
	<anchor name="center" x="432" y="502"/>
</glyph>
<glyph name="y" format="2">
	<unicode hex="0079"/>
	<advance width="983"/>
	<outline>
		<contour>
			<point x="-192.8654785156" y="-373.5" type="line"/>
			<point x="-191.8654785156" y="-356.5" type="line"/>
			<point x="-102.6527709961" y="-354.5" type="line" smooth="yes"/>
			<point x="-13.9033203125" y="-352.5"/>
			<point x="154.0098266602" y="-233.6908569336"/>
			<point x="232.00390625" y="-136.2271728516" type="qcurve" smooth="yes"/>
			<point x="366.2896118164" y="30" type="line"/>
			<point x="328.0901489258" y="30" type="line"/>
			<point x="288.9376220703" y="261.2832641602"/>
			<point x="225.3344726562" y="758.2819824219"/>
			<point x="202.6924438477" y="861.2819824219" type="qcurve"/>
			<point x="41.2494506836" y="863.2819824219" type="line"/>
			<point x="42.9767456055" y="962.0557861328" type="line"/>
			<point x="286.0168457031" y="999.0557861328" type="line"/>
			<point x="349.9412841797" y="999.0557861328" type="line"/>
			<point x="360.9412841797" y="974.0557861328" type="line"/>
			<point x="458.7769775391" y="207.0525512695" type="line"/>
			<point x="464.609375" y="134.5363769531" type="line"/>
			<point x="465.609375" y="134.5363769531" type="line"/>
			<point x="516.7316894531" y="208.6246337891" type="line" smooth="yes"/>
			<point x="711.3822631836" y="486.5952148438"/>
			<point x="761.3664550781" y="702.5785522461"/>
			<point x="761.3664550781" y="847.5253295898" type="qcurve" smooth="yes"/>
			<point x="762.3664550781" y="872.5253295898"/>
			<point x="708.70703125" y="955.5253295898"/>
			<point x="665.70703125" y="980.5253295898" type="qcurve" smooth="yes"/>
			<point x="682.70703125" y="991.5253295898"/>
			<point x="746.1305541992" y="1003.5253295898"/>
			<point x="768.0153808594" y="1003.5253295898" type="qcurve" smooth="yes"/>
			<point x="810.0927734375" y="1003.5253295898"/>
			<point x="880.4811401367" y="960.5253295898"/>
			<point x="880.4811401367" y="933.5253295898" type="qcurve" smooth="yes"/>
			<point x="880.4811401367" y="817.6578369141"/>
			<point x="719.3199462891" y="321.4544067383"/>
			<point x="384.7510986328" y="-75.8309936523" type="qcurve" smooth="yes"/>
			<point x="325.897644043" y="-147.9991455078" type="line" smooth="yes"/>
			<point x="158.1054077148" y="-342.4987792969"/>
			<point x="-23.5402832031" y="-394.5"/>
			<point x="-106.9857177734" y="-400.5" type="qcurve"/>
		</contour>
	</outline>
	<anchor name="bottom" x="782" y="0"/>
	<anchor name="top" x="504" y="1000"/>
</glyph>
<glyph name="z" format="2">
	<unicode hex="007A"/>
	<advance width="558"/>
	<outline>
		<contour>
			<point x="-94.6100463867" y="14.2002563477" type="line"/>
			<point x="-148.9982910156" y="91.5982055664" type="line"/>
			<point x="-76.727722168" y="157.9313964844"/>
			<point x="145.164855957" y="458.967956543"/>
			<point x="213.1384887695" y="551.1301879883" type="qcurve" smooth="yes"/>
			<point x="303.0816040039" y="663.1301879883"/>
			<point x="369.4923706055" y="757.5290527344"/>
			<point x="394.9694824219" y="833.7833862305" type="qcurve"/>
			<point x="137.1525268555" y="831.1679077148" type="line"/>
			<point x="92.8610229492" y="795.0584716797" type="line"/>
			<point x="-15.3489379883" y="795.0584716797" type="line"/>
			<point x="40.9437866211" y="968.0557861328" type="line"/>
			<point x="67.9437866211" y="987.0557861328" type="line"/>
			<point x="593.1399536133" y="976.0557861328" type="line"/>
			<point x="607.3397827148" y="908.3902587891" type="line"/>
			<point x="569.4133300781" y="820.3902587891"/>
			<point x="423.9030151367" y="618.595703125"/>
			<point x="333.2322387695" y="501.0686645508" type="qcurve" smooth="yes"/>
			<point x="267.2901000977" y="410.9064331055"/>
			<point x="140.0638427734" y="241.9830322266"/>
			<point x="89.7750854492" y="186.7163085938" type="qcurve"/>
			<point x="408.9116821289" y="148.2707519531" type="line"/>
			<point x="436.6743164062" y="242.455078125" type="line"/>
			<point x="524.3103027344" y="217.6472167969" type="line"/>
			<point x="452.0150756836" y="0" type="line"/>
			<point x="416.0150756836" y="-19" type="line"/>
			<point x="1.7891845703" y="73.0668945312" type="line"/>
		</contour>
	</outline>
	<anchor name="bottom" x="443" y="0"/>
	<anchor name="top" x="463" y="1000"/>
	<anchor name="_liga" x="0" y="0"/>
</glyph>
<glyph name="jdotless" format="2">
	<unicode hex="0237"/>
	<advance width="486"/>
	<outline>
		<contour>
			<point x="240.9149780273" y="861.2819824219" type="qcurve"/>
			<point x="120.9723510742" y="863.2819824219" type="line"/>
			<point x="122.6996459961" y="962.0557861328" type="line"/>
			<point x="309.5069580078" y="999.0557861328" type="line"/>
			<point x="362.7007446289" y="999.0557861328" type="line"/>
			<point x="418.4710083008" y="906.4762573242" type="line"/>
			<point x="377.3825683594" y="804.0557861328" type="line"/>
			<point x="288.8791503906" y="305" type="line"/>
			<point x="222.671081543" y="-74.2670898438"/>
			<point x="-76.7182617188" y="-479"/>
			<point x="-281.6598510742" y="-479" type="qcurve"/>
			<point x="-393.2467041016" y="-445" type="line"/>
			<point x="-377.7010498047" y="-349.2261962891" type="line"/>
			<point x="-261.2819213867" y="-345.4989013672" type="line" smooth="yes"/>
			<point x="-89.7354125977" y="-342.4989013672"/>
			<point x="65.6340332031" y="-20.1858520508"/>
			<point x="119.0856933594" y="235.5008544922" type="qcurve" smooth="yes"/>
			<point x="131.8841552734" y="281.9193115234"/>
			<point x="222.3708496094" y="759.6635131836"/>
		</contour>
	</outline>
	<anchor name="bottom" x="88" y="-436"/>
	<anchor name="top" x="320" y="1000"/>
	<anchor name="_liga" x="0" y="0"/>
</glyph>
